<svg xmlns="http://www.w3.org/2000/svg" width="18.806" height="19.957" viewBox="0 0 18.806 19.957">
  <g id="food-atention" transform="matrix(0.966, -0.259, 0.259, 0.966, -622.983, -98.73)" opacity="0.8">
    <g id="グループ_39" data-name="グループ 39" transform="translate(575.611 258.726)">
      <path id="パス_469" data-name="パス 469" d="M587,259.447c-.032-.06-.118-.187-.114-.153l.132.224Z" transform="translate(-578.02 -258.846)" fill="#4a3e32"/>
      <path id="パス_470" data-name="パス 470" d="M586.59,259.046a3.207,3.207,0,0,0,.3.506l-.208-.394c0-.034.068.056.117.138-.031-.059.051.035-.031-.107-.126-.158-.151-.151-.083,0A1.519,1.519,0,0,1,586.59,259.046Z" transform="translate(-577.957 -258.795)" fill="#4a3e32"/>
      <path id="パス_471" data-name="パス 471" d="M584.729,259.669l.025.02A.071.071,0,0,0,584.729,259.669Z" transform="translate(-577.559 -258.928)" fill="#4a3e32"/>
      <path id="パス_472" data-name="パス 472" d="M583.652,260.182c0-.009-.01-.032-.024-.051A.124.124,0,0,0,583.652,260.182Z" transform="translate(-577.324 -259.026)" fill="#4a3e32"/>
      <path id="パス_473" data-name="パス 473" d="M583.281,260.013l.018.009C583.282,260,583.271,260,583.281,260.013Z" transform="translate(-577.249 -258.999)" fill="#4a3e32"/>
      <path id="パス_474" data-name="パス 474" d="M584.711,259.654l-.067-.053C584.69,259.672,584.69,259.646,584.711,259.654Z" transform="translate(-577.541 -258.913)" fill="#4a3e32"/>
      <path id="パス_475" data-name="パス 475" d="M586.8,259.838a.322.322,0,0,0-.027-.064l0,.03Z" transform="translate(-577.997 -258.95)" fill="#4a3e32"/>
      <path id="パス_476" data-name="パス 476" d="M584.994,259.128l.006,0-.054-.091Z" transform="translate(-577.606 -258.792)" fill="#4a3e32"/>
      <path id="パス_477" data-name="パス 477" d="M585.311,258.889c-.012,0,.109.181.16.263a.643.643,0,0,1-.071-.134Z" transform="translate(-577.683 -258.761)" fill="#4a3e32"/>
      <path id="パス_478" data-name="パス 478" d="M586.108,258.944l-.009-.03Z" transform="translate(-577.852 -258.766)" fill="#4a3e32"/>
      <path id="パス_479" data-name="パス 479" d="M584.723,259.248l-.047-.064Z" transform="translate(-577.548 -258.824)" fill="#4a3e32"/>
      <path id="パス_480" data-name="パス 480" d="M577.462,267.8l-.027-.029A.235.235,0,0,0,577.462,267.8Z" transform="translate(-576.001 -260.659)" fill="#4a3e32"/>
      <path id="パス_481" data-name="パス 481" d="M576.157,267.083l0-.012-.085-.09Z" transform="translate(-575.709 -260.49)" fill="#4a3e32"/>
      <path id="パス_482" data-name="パス 482" d="M582.769,259.938l0,0C582.764,259.916,582.764,259.923,582.769,259.938Z" transform="translate(-577.14 -258.982)" fill="#4a3e32"/>
      <path id="パス_483" data-name="パス 483" d="M580.178,262.175c.147.136.12.229.292.372A2.254,2.254,0,0,0,580.178,262.175Z" transform="translate(-576.587 -259.463)" fill="#4a3e32"/>
      <path id="パス_484" data-name="パス 484" d="M586.778,259.831s0,.009-.009.009S586.78,259.84,586.778,259.831Z" transform="translate(-577.995 -258.962)" fill="#4a3e32"/>
      <path id="パス_485" data-name="パス 485" d="M580.55,262.648v0l.017.013Z" transform="translate(-576.666 -259.564)" fill="#4a3e32"/>
      <path id="パス_486" data-name="パス 486" d="M582.179,260.586l.063.073Z" transform="translate(-577.014 -259.124)" fill="#4a3e32"/>
      <path id="パス_487" data-name="パス 487" d="M582.92,260.526l-.027-.017C582.909,260.522,582.916,260.526,582.92,260.526Z" transform="translate(-577.167 -259.107)" fill="#4a3e32"/>
      <path id="パス_488" data-name="パス 488" d="M582.143,261.1c-.016-.009-.036-.032-.025,0l.018.02C582.12,261.086,582.116,261.072,582.143,261.1Z" transform="translate(-577.001 -259.229)" fill="#4a3e32"/>
      <path id="パス_489" data-name="パス 489" d="M581.878,261.309l.031.032v-.015Z" transform="translate(-576.95 -259.278)" fill="#4a3e32"/>
      <path id="パス_490" data-name="パス 490" d="M578.08,266.984l-.143-.138C578.046,266.959,578.056,267.027,578.08,266.984Z" transform="translate(-576.108 -260.461)" fill="#4a3e32"/>
      <path id="パス_491" data-name="パス 491" d="M586.722,259.724a.432.432,0,0,1,.046.084v-.015Z" transform="translate(-577.985 -258.939)" fill="#4a3e32"/>
      <path id="パス_492" data-name="パス 492" d="M583.456,262.883l-.053,0A.052.052,0,0,0,583.456,262.883Z" transform="translate(-577.276 -259.614)" fill="#4a3e32"/>
      <path id="パス_493" data-name="パス 493" d="M579.886,265.408l.01.026C579.9,265.435,579.9,265.428,579.886,265.408Z" transform="translate(-576.524 -260.154)" fill="#4a3e32"/>
      <path id="パス_494" data-name="パス 494" d="M583.273,262.98a.953.953,0,0,0-.111-.108l.031.048Z" transform="translate(-577.225 -259.612)" fill="#4a3e32"/>
      <path id="パス_495" data-name="パス 495" d="M577.935,266.844l0,0Z" transform="translate(-576.108 -260.461)" fill="#4a3e32"/>
      <path id="パス_496" data-name="パス 496" d="M577.593,265.7c.033-.022-.179-.221-.286-.349-.021-.093.161.142.274.241-.031-.077-.194-.289-.171-.295a.756.756,0,0,1,.086.091c-.134-.191.061-.071-.109-.31l.052.05-.273-.29c.009-.017-.1-.158.034-.023-.012,0,.039.061.076.108l-.042-.074c.2.19.045.087.182.237-.033-.09-.154-.286-.081-.248.184.193.012.111.2.261l-.1-.046c.308.289-.039,0,.287.308.094.019-.046-.144.049-.124-.09-.118-.151-.16-.241-.278-.12-.252.5.455.3.153-.108-.142-.33-.4-.178-.292l.192.234c.06-.015-.267-.344-.089-.231.072.1.035.1.065.124.187.153-.1-.145-.074-.164l.183.2c.016-.07-.065-.257-.05-.337a1.025,1.025,0,0,0,.164.182c-.028-.154.152-.092.316-.025l-.131-.193a.461.461,0,0,1,.1.108c.081.045-.1-.111-.145-.189,0-.024.105.084.142.143-.089-.182-.162-.418.044-.271l.037.059c.1.042-.274-.389-.1-.254l.02.036c.138.011.081-.219.365,0-.207-.26.169.05-.128-.305a1.929,1.929,0,0,0,.393.278c.029,0-.165-.24-.177-.293l.158.183-.139-.215.2.208-.022-.063a.582.582,0,0,1-.131-.123c-.042-.108.179.069.26.163l-.065-.214a.861.861,0,0,1,.1.166c-.124-.219.171.19.058-.012a1.834,1.834,0,0,1-.122-.15c.111.1.149.067.138,0l.1.132c.078-.01.055-.15.113-.2a1.067,1.067,0,0,1-.252-.3l.171.191c-.09-.131-.079-.06-.182-.227a1.066,1.066,0,0,1,.242.285l-.031-.09c.05.057.07.094.131.17-.092-.131.209.16.047-.064l.05.057c.057-.046.027-.135.064-.183a1.966,1.966,0,0,1-.191-.3c.079.027.228.13.258.081-.041-.108-.111-.151-.181-.263.13.154.159.105.23.234.028-.065.038-.082,0-.26a.886.886,0,0,1-.129-.136c-.009-.035.079.044.139.12l.01.018c-.12-.292.532.323.324-.048l.009.018-.079-.217c.049.005.079.131.177.212-.147-.312.131-.042.042-.258.411.432.117-.147.407.107l-.09-.108c-.072-.119.067.05.1.066-.069-.084-.094-.086-.131-.153.014-.228.374-.033.573-.029.068-.006-.418-.592-.156-.372l.142.218c-.1-.318.193-.136.122-.414.031.052.078.114.068.12.134.136.076-.046-.017-.168.024,0,.087.108.144.164.087.075-.1-.227.025-.086a.2.2,0,0,1,.037.067c-.042-.082.072-.025-.072-.189.1.057.006-.127.111-.044-.129-.208.128.05-.073-.23.212.286.231.184.153.035.057.091.086.076.167.2.021-.022,0-.091-.109-.234.3.307-.114-.343.237.076a1.489,1.489,0,0,1-.035-.478c.208.287-.051.083.173.38-.025-.164-.17-.436-.057-.413.045.027.082.131.112.184-.024-.164.14-.062.082-.259a.4.4,0,0,1,.045.086c0-.017.057.024-.04-.106l.015.043a3.554,3.554,0,0,1-.314-.528c.252.387.123.053.437.548a.828.828,0,0,0-.112-.185.506.506,0,0,1,.13.173c-.012-.1-.127-.228-.089-.251.046.063.057.093.106.17-.071-.136-.142-.273-.072-.241.025.039.065.087.055.092.038-.057-.148-.393,0-.315.181.288.085.076.259.313l-.02-.093-.1-.108c.03-.015-.07-.206.009-.144l.05.112.019-.081-.094-.071c-.061-.142-.219-.3-.134-.259.009.03.029-.016.144.115h0c-.041-.086-.083-.176-.021-.131l.223.316c-.129-.209.024-.1-.11-.326.03.053.119.18.138.2l-.1-.171a.686.686,0,0,1,.138.168c.059,0-.226-.3-.089-.2a.748.748,0,0,1,.035.068c.094.036.015-.165.112-.114.182.233.006.085.163.278.028-.086-.079-.377.02-.36l-.03-.02c-.23-.348.161.139.079-.042a1.33,1.33,0,0,0,.1.157c.078.027.023-.141.009-.291l.053.094c.078.062.093,0,.146.025a.85.85,0,0,0-.126-.212c.423.45-.034-.374.322,0-.008.007.033.091.04.087l0-.122a1.538,1.538,0,0,0-.161-.194c-.053-.094-.083-.175-.068-.186a1.084,1.084,0,0,0,.232.318l-.1-.144c.211.246-.2-.307-.035-.155l.051.08c-.012-.051-.068-.166-.035-.155.124.17.038.093.133.237.017-.027-.174-.362-.035-.2.023.055.009.066.031.121.161.189.129.135.168.156l0,0,.1.065-.047-.049c-.274-.476.005-.124-.153-.451a1.467,1.467,0,0,0,.232.368.813.813,0,0,1,.136.158c-.087-.173.116.1-.013-.148.044.063.025-.008.127.156-.009-.067-.08-.107-.131-.189-.106-.245.267.205.124-.132-.033-.155-.166-.377-.192-.513a.939.939,0,0,1,.141.241c.086.079.094.049.068-.039a1.147,1.147,0,0,0,.123.171c.007-.029-.141-.242-.054-.164l.149.27c-.017-.073-.073-.207-.089-.28a1.332,1.332,0,0,1,.137.257.613.613,0,0,0-.108-.326l-.057-.053a.846.846,0,0,1,.118.186c.069.153-.072-.041-.115-.1l-.01-.052c-.263-.366-.026.1-.072.1l-.165-.282.115.249a1.194,1.194,0,0,1-.169-.268c-.112-.12.043.111-.076-.027a.181.181,0,0,1-.03-.048l.031.1c-.033-.061-.131-.191-.09-.16-.145-.131.068.249-.083.051l-.008-.019c0,.13.127.2.239.467l-.355-.475.127.2c-.011,0-.032-.011-.083-.092.069.151.061.084.134.222-.149-.164-.021.137-.239-.178.091.159.1.1.146.226-.237-.337,0,.082-.126-.058-.11-.182-.024-.1-.154-.245.184.309-.094-.031-.077.04.157.238.019.131.035.234-.051-.081-.156-.084-.248-.147l-.026-.041c.155.244.09.223.1.289a1.447,1.447,0,0,1-.159-.277l-.023.017a.431.431,0,0,1,.068.164l-.115-.182c-.025.031.079.253-.043.162a3.215,3.215,0,0,1,.381.582,2.175,2.175,0,0,1-.183-.286c0,.014.038.084,0,.05l-.086-.163c-.064-.054.076.133.052.129-.086-.128-.073-.084-.14-.187,0-.015.049.044.02-.01a.6.6,0,0,1-.177-.166.8.8,0,0,1,.117.2c-.025.031-.116-.146-.18-.2.053.094-.03.016.1.208-.01.005-.073-.083-.112-.132.042.1-.06.077.1.268l.014.01,0,.01h0c.078.227-.185-.031-.182.086l-.044-.064c.019.1-.041.092.032.245a.7.7,0,0,1-.152-.18c.009.065.056.138-.052.057-.053-.128-.078-.093-.032-.1-.07-.033-.148-.13-.06.068-.1-.171-.167-.189-.149-.13l.1.1c0,.035-.025.031-.049.028l-.142-.22c-.248-.215.2.524-.16.124.088.161.109.08.217.266-.05-.008-.3-.293-.307-.287-.124-.089.183.339.084.288a1.4,1.4,0,0,1,.228.366,1.206,1.206,0,0,1-.288-.367c0-.012.023.01.041.036a.31.31,0,0,0-.091-.15l.05.079c-.07-.067-.1-.03-.184-.162a.276.276,0,0,0,.124.16c-.117-.083-.062.039-.153-.007a.609.609,0,0,1,.1.126c-.124-.053.079.162.064.223-.1-.1-.19-.281-.16-.156a.85.85,0,0,1-.184-.266c.069.171-.136-.048-.175-.06l-.025-.075c.015.044,0,.05,0,.056l.12.144a.175.175,0,0,1-.086-.076c.061.108.191.245.267.4-.071-.066.015.115-.135-.083.1.035-.151-.2-.135-.258.01.029,0,.035-.031.017a.221.221,0,0,1-.034-.057c-.174-.147.144.241.1.27-.076-.117-.166-.206-.156-.177.02-.011.146.182.192.281-.094-.067.016.088-.007.089l.047.029c.076.117.051.112.057.163-.065-.086-.025-.074-.061-.107.122.214-.2-.168-.134-.013-.071-.065-.156-.21-.208-.252.072.171-.151-.127-.1.021a.788.788,0,0,1,.179.272l-.018-.152.123.249c.02-.011-.031-.123,0-.105a.7.7,0,0,0,.147.217c-.191-.208.048.168-.093.037l-.274-.375c-.167-.134.064.249-.061.2l.066.052c.1.154-.02.046.007.119a1.993,1.993,0,0,0-.2-.234c.07.092-.048.022.132.274l-.147-.145c-.1-.034.213.392.138.382a2.179,2.179,0,0,1-.216-.337c-.016.01-.046,0,.018.083-.067-.072.085.2-.016.089.035.06.13.191.106.193l-.046-.061a1.055,1.055,0,0,0,.154.23c-.335-.354-.1.121-.392-.181a.333.333,0,0,1-.029.164c-.027-.038-.047-.061-.031-.053-.127-.085.245.373.1.279-.175-.182-.058-.127-.13-.191-.316-.4-.012.1-.223-.117l-.011-.03c-.129-.12.061.2,0,.2L580.2,261a.855.855,0,0,1,.146.417,1.4,1.4,0,0,0-.179-.252c0,.035.2.254.207.324a2.763,2.763,0,0,1-.295-.305l.023-.033c-.187-.209-.033.039-.079.013l-.073-.1c-.023.068.167.312.1.333l.062.069c.161.263-.128-.118-.016.083l-.2-.238a2.219,2.219,0,0,1,.125.356,3.1,3.1,0,0,1-.219-.443c-.02.013-.047.065.038.193-.011-.029-.049-.1-.012-.064.128.21.174.326.135.35-.366-.478-.186-.048-.5-.394.075.225-.183.025-.234.112.318.345-.013.028.292.4,0,.038-.01.036-.031.013l-.23-.183c-.1-.1-.05-.1-.119-.178-.06,0-.143-.147-.248-.226.112.13.141.2.079.168l.168.149c.109.241-.3-.278-.192-.039l-.078-.131c.029.091-.1.078.116.4a.774.774,0,0,1-.139-.173c-.1.007.117.435-.083.291l-.069-.1c.009.036.119.188.029.109a.532.532,0,0,0-.079-.1c.02.036.1.185.04.145l-.071-.113c-.16-.068.109.327.109.432a.916.916,0,0,0-.4-.337l-.03-.039c-.1.028.061.323.082.483-.282-.254-.241,0-.443-.11a1.033,1.033,0,0,1,.183.245c-.061-.041.112.219-.09-.025h.009c-.212-.228-.192-.138-.222-.123l.264.32c-.455-.4-.024.314-.411-.068.052.093.032.108.084.2l-.144-.169c-.08-.006-.12-.009-.139.077l-.094-.13c-.039.015.382.518.362.552l-.226-.244c-.049.048-.293-.125-.146.147a.625.625,0,0,1-.094-.128c-.03.015-.243-.086.066.249-.2-.223-.072.025-.014.148l-.14-.168c.161.231.211.289.229.377-.026-.015-.123-.126-.075-.093-.1-.064.116.173.008.113l-.081-.115c-.038.011.014.065.108.2.041.08-.087,0-.223-.142.077.094.17.227.116.2a.629.629,0,0,1-.089-.114c-.144-.072.1.25-.07.116a.94.94,0,0,0-.093-.093c.039-.028.076-.045.083-.031a2.768,2.768,0,0,1-.349-.381c.078.134.259.417.168.371l-.05-.049-.012-.02c-.02-.009-.013.01,0,.04-.031-.017-.053-.03-.064-.024-.115-.122-.093-.038-.112-.031a2.058,2.058,0,0,0,.245.274.033.033,0,0,1-.011-.038.073.073,0,0,0-.009-.022l.012.015a.23.23,0,0,1,.025-.042c.064.094.116.175.018.1l.218.283c-.225-.212-.374-.3-.506-.439a.705.705,0,0,0,.2.485c.024.05-.094-.076-.143-.12-.02-.038-.008-.041-.044-.088.047.1-.045.1.144.316-.119-.069-.162-.213-.172-.14l-.054-.071c-.4-.266.365.671-.129.316a.425.425,0,0,1,.08.065c-.283-.1-.048.377-.434.169-.087-.034.037.1.116.224l-.168-.167.157.229c.094.186-.474-.355-.268-.028l.116.11c-.04,0,0,.127-.12-.01.018.024.108.127.042.074l-.086-.09.1.2c-.1-.03-.334-.362-.4-.329a1.567,1.567,0,0,0,.256.369c.013,0,.075.036.161.126l.026.064a4.809,4.809,0,0,0,.715.7l-.123-.191.133.119-.019.033c.13.107.038-.009-.022-.092a1.243,1.243,0,0,0,.148.13l-.211-.282a1.775,1.775,0,0,0,.257.257c-.1-.131-.235-.22-.285-.32.129.107.218.209.138.09a.82.82,0,0,1,.127.15c-.062-.1.008-.073-.118-.222.156.134.016-.088.252.165a1.056,1.056,0,0,1-.155-.247c.258.326.07-.032.367.3-.236-.29-.045-.186-.152-.369.018.024.055.071.039.06.04,0,.123.082.182.122a3.261,3.261,0,0,1-.338-.461,6.229,6.229,0,0,1,.433.48c-.171-.182-.128-.22-.277-.366a2.036,2.036,0,0,1,.259.23c-.259-.285-.028-.063-.173-.25.155.115.252.259.2.146A.749.749,0,0,1,577.593,265.7Zm.238-1.117,0,0-.005.023Zm.056-.055a.043.043,0,0,0-.031.017c-.053-.055-.1-.116-.094-.118A.625.625,0,0,0,577.887,264.533Zm-1.146-1.03c-.011-.031.02,0,.053.031a.073.073,0,0,0,0,.035l.017.021Z" transform="translate(-575.611 -258.75)" fill="#4a3e32"/>
      <path id="パス_497" data-name="パス 497" d="M577.273,265.063l.006.016.039.032-.043-.055Z" transform="translate(-575.966 -260.079)" fill="#4a3e32"/>
      <path id="パス_498" data-name="パス 498" d="M584.765,259.7l0,0,.02.024Z" transform="translate(-577.566 -258.933)" fill="#4a3e32"/>
      <path id="パス_499" data-name="パス 499" d="M579.882,265.573l-.036-.042.027.042Z" transform="translate(-576.516 -260.18)" fill="#4a3e32"/>
      <path id="パス_500" data-name="パス 500" d="M585.768,260.183l.036.044Z" transform="translate(-577.781 -259.038)" fill="#4a3e32"/>
      <path id="パス_501" data-name="パス 501" d="M586,260.1l.066.051A.367.367,0,0,0,586,260.1Z" transform="translate(-577.831 -259.02)" fill="#4a3e32"/>
      <path id="パス_502" data-name="パス 502" d="M586.215,260.095l-.049-.08,0,0Z" transform="translate(-577.866 -259.001)" fill="#4a3e32"/>
      <path id="パス_503" data-name="パス 503" d="M584.046,262.043a.023.023,0,0,0,0,.011C584.062,262.1,584.059,262.078,584.046,262.043Z" transform="translate(-577.413 -259.435)" fill="#4a3e32"/>
      <path id="パス_504" data-name="パス 504" d="M584.363,261.006l.042.1C584.425,261.111,584.435,261.109,584.363,261.006Z" transform="translate(-577.481 -259.213)" fill="#4a3e32"/>
      <path id="パス_505" data-name="パス 505" d="M583.476,262.882l0,0,0,0Z" transform="translate(-577.29 -259.614)" fill="#4a3e32"/>
      <path id="パス_506" data-name="パス 506" d="M584.381,261.143c.035.029.038.016.028-.015C584.392,261.122,584.369,261.11,584.381,261.143Z" transform="translate(-577.484 -259.238)" fill="#4a3e32"/>
      <path id="パス_507" data-name="パス 507" d="M586.957,259.782l.011,0-.019-.03Z" transform="translate(-578.034 -258.946)" fill="#4a3e32"/>
      <path id="パス_508" data-name="パス 508" d="M586.947,259.749l-.008-.026S586.934,259.728,586.947,259.749Z" transform="translate(-578.031 -258.939)" fill="#4a3e32"/>
      <path id="パス_509" data-name="パス 509" d="M586.918,259.652l.016.056S586.949,259.707,586.918,259.652Z" transform="translate(-578.027 -258.924)" fill="#4a3e32"/>
      <path id="パス_510" data-name="パス 510" d="M586.686,259.813l.042.068Z" transform="translate(-577.978 -258.958)" fill="#4a3e32"/>
      <path id="パス_511" data-name="パス 511" d="M586.638,259.868c.021.008.123.124.111.072l-.033-.054C586.773,259.99,586.575,259.748,586.638,259.868Z" transform="translate(-577.964 -258.963)" fill="#4a3e32"/>
      <path id="パス_512" data-name="パス 512" d="M585.659,258.938l.077.027c-.055-.067-.127-.156-.12-.186C585.423,258.6,585.732,258.931,585.659,258.938Z" transform="translate(-577.735 -258.726)" fill="#4a3e32"/>
      <path id="パス_513" data-name="パス 513" d="M585.414,258.934c0-.048-.069-.1-.1-.144A.281.281,0,0,0,585.414,258.934Z" transform="translate(-577.685 -258.74)" fill="#4a3e32"/>
      <path id="パス_514" data-name="パス 514" d="M584.247,259.718l-.112-.167C584.134,259.586,584.179,259.615,584.247,259.718Z" transform="translate(-577.432 -258.903)" fill="#4a3e32"/>
      <path id="パス_515" data-name="パス 515" d="M584.815,260.981l.088.091-.1-.156Z" transform="translate(-577.576 -259.194)" fill="#4a3e32"/>
      <path id="パス_516" data-name="パス 516" d="M583.638,259.592l-.009-.029.014.079Z" transform="translate(-577.324 -258.905)" fill="#4a3e32"/>
      <path id="パス_517" data-name="パス 517" d="M581.776,261.07l.154.193C581.915,261.219,581.749,261,581.776,261.07Z" transform="translate(-576.928 -259.224)" fill="#4a3e32"/>
      <path id="パス_518" data-name="パス 518" d="M581.131,261.924c-.083-.092-.149-.141-.086-.036C581.069,261.89,581.143,261.955,581.131,261.924Z" transform="translate(-576.767 -259.389)" fill="#4a3e32"/>
      <path id="パス_519" data-name="パス 519" d="M578.445,263.468l-.041-.074.021.073Z" transform="translate(-576.208 -259.724)" fill="#4a3e32"/>
    </g>
    <g id="グループ_40" data-name="グループ 40" transform="translate(578.785 265.897)">
      <path id="パス_520" data-name="パス 520" d="M591.884,268.805c-.021-.064-.084-.2-.086-.171l.091.244Z" transform="translate(-582.243 -268.013)" fill="#4a3e32"/>
      <path id="パス_521" data-name="パス 521" d="M591.55,268.34a3.334,3.334,0,0,0,.205.55l-.136-.424c0-.035.057.066.091.156-.021-.064.044.043-.013-.111-.1-.178-.123-.175-.081-.012A1.36,1.36,0,0,1,591.55,268.34Z" transform="translate(-582.19 -267.951)" fill="#4a3e32"/>
      <path id="パス_522" data-name="パス 522" d="M589.617,268.636l.021.024A.072.072,0,0,0,589.617,268.636Z" transform="translate(-581.777 -268.014)" fill="#4a3e32"/>
      <path id="パス_523" data-name="パス 523" d="M588.473,268.964a.1.1,0,0,0-.015-.054A.123.123,0,0,0,588.473,268.964Z" transform="translate(-581.53 -268.073)" fill="#4a3e32"/>
      <path id="パス_524" data-name="パス 524" d="M588.133,268.738l.017.012C588.136,268.73,588.127,268.719,588.133,268.738Z" transform="translate(-581.46 -268.034)" fill="#4a3e32"/>
      <path id="パス_525" data-name="パス 525" d="M589.6,268.619l-.057-.064C589.579,268.633,589.583,268.607,589.6,268.619Z" transform="translate(-581.762 -267.997)" fill="#4a3e32"/>
      <path id="パス_526" data-name="パス 526" d="M591.624,269.157a.372.372,0,0,0-.015-.068v.03Z" transform="translate(-582.203 -268.111)" fill="#4a3e32"/>
      <path id="パス_527" data-name="パス 527" d="M589.967,268.147l.006,0-.038-.1Z" transform="translate(-581.846 -267.888)" fill="#4a3e32"/>
      <path id="パス_528" data-name="パス 528" d="M590.32,267.965c-.011-.006.077.2.114.286a.707.707,0,0,1-.048-.145Z" transform="translate(-581.927 -267.871)" fill="#4a3e32"/>
      <path id="パス_529" data-name="パス 529" d="M591.095,268.155l0-.031Z" transform="translate(-582.092 -267.905)" fill="#4a3e32"/>
      <path id="パス_530" data-name="パス 530" d="M589.681,268.219l-.036-.071Z" transform="translate(-581.783 -267.91)" fill="#4a3e32"/>
      <path id="パス_531" data-name="パス 531" d="M581.309,275.589l-.024-.032A.206.206,0,0,0,581.309,275.589Z" transform="translate(-579.997 -269.493)" fill="#4a3e32"/>
      <path id="パス_532" data-name="パス 532" d="M580.1,274.713l0-.012-.073-.1Z" transform="translate(-579.728 -269.289)" fill="#4a3e32"/>
      <path id="パス_533" data-name="パス 533" d="M587.641,268.582l0,0C587.64,268.559,587.637,268.566,587.641,268.582Z" transform="translate(-581.355 -268)" fill="#4a3e32"/>
      <path id="パス_534" data-name="パス 534" d="M584.737,270.4c.126.156.086.244.235.41A2.2,2.2,0,0,0,584.737,270.4Z" transform="translate(-580.735 -268.391)" fill="#4a3e32"/>
      <path id="パス_535" data-name="パス 535" d="M591.6,269.146a.015.015,0,0,1-.011.007C591.6,269.157,591.6,269.155,591.6,269.146Z" transform="translate(-582.199 -268.123)" fill="#4a3e32"/>
      <path id="パス_536" data-name="パス 536" d="M585.036,270.92v0l.015.016Z" transform="translate(-580.798 -268.502)" fill="#4a3e32"/>
      <path id="パス_537" data-name="パス 537" d="M586.955,269.129l.051.083Z" transform="translate(-581.209 -268.12)" fill="#4a3e32"/>
      <path id="パス_538" data-name="パス 538" d="M587.7,269.186l-.024-.021C587.686,269.181,587.693,269.185,587.7,269.186Z" transform="translate(-581.362 -268.127)" fill="#4a3e32"/>
      <path id="パス_539" data-name="パス 539" d="M586.841,269.627c-.014-.012-.031-.038-.024-.008l.015.023C586.821,269.614,586.817,269.6,586.841,269.627Z" transform="translate(-581.179 -268.221)" fill="#4a3e32"/>
      <path id="パス_540" data-name="パス 540" d="M586.547,269.8l.025.037,0-.014Z" transform="translate(-581.121 -268.262)" fill="#4a3e32"/>
      <path id="パス_541" data-name="パス 541" d="M582.017,274.862l-.124-.156C581.987,274.832,581.987,274.9,582.017,274.862Z" transform="translate(-580.127 -269.311)" fill="#4a3e32"/>
      <path id="パス_542" data-name="パス 542" d="M591.565,269.031a.43.43,0,0,1,.031.09l0-.015Z" transform="translate(-582.194 -268.099)" fill="#4a3e32"/>
      <path id="パス_543" data-name="パス 543" d="M587.862,271.594l-.052-.009A.052.052,0,0,0,587.862,271.594Z" transform="translate(-581.391 -268.644)" fill="#4a3e32"/>
      <path id="パス_544" data-name="パス 544" d="M584,273.551l.006.027C584.01,273.581,584.01,273.573,584,273.551Z" transform="translate(-580.577 -269.064)" fill="#4a3e32"/>
      <path id="パス_545" data-name="パス 545" d="M587.668,271.662a.989.989,0,0,0-.093-.124l.023.053Z" transform="translate(-581.341 -268.634)" fill="#4a3e32"/>
      <path id="パス_546" data-name="パス 546" d="M581.891,274.7l0,0Z" transform="translate(-580.126 -269.311)" fill="#4a3e32"/>
      <path id="パス_547" data-name="パス 547" d="M581.493,273.862c.035-.017-.149-.242-.24-.383-.009-.094.142.162.241.274-.02-.079-.156-.31-.132-.314a.809.809,0,0,1,.073.1c-.108-.207.068-.063-.068-.321l.045.056-.234-.322c.012-.015-.079-.17.036-.018-.012,0,.031.065.061.116l-.032-.079c.17.214.033.093.149.258-.021-.094-.116-.3-.05-.256.158.215,0,.112.165.285l-.094-.059c.268.326-.039-.009.245.343.09.031-.027-.149.064-.116-.074-.129-.129-.178-.2-.307-.086-.264.435.516.28.19-.089-.154-.276-.436-.14-.312l.16.256c.061-.006-.221-.375-.058-.241.058.1.021.107.048.132.166.175-.076-.156-.052-.172l.156.217c.024-.068-.032-.263-.006-.34a1.082,1.082,0,0,0,.138.2c-.009-.156.161-.071.315.018l-.1-.208a.437.437,0,0,1,.087.121c.075.056-.08-.123-.118-.206.005-.023.093.1.122.161-.064-.192-.105-.436.078-.261l.029.063c.088.054-.219-.421-.067-.265l.017.039c.134.031.108-.206.359.047-.169-.286.16.073-.087-.319.171.163.2.241.351.329.029.007-.131-.26-.135-.315l.131.2-.108-.233.171.234-.013-.065a.633.633,0,0,1-.112-.141c-.028-.112.167.094.235.2l-.036-.22a.837.837,0,0,1,.08.178c-.094-.234.143.211.058,0a1.624,1.624,0,0,1-.1-.166c.1.112.138.088.136.017l.083.145c.078,0,.074-.141.138-.176a1.094,1.094,0,0,1-.208-.337l.143.213c-.072-.142-.071-.071-.149-.25a1.055,1.055,0,0,1,.2.317l-.019-.094c.042.064.057.1.106.186-.072-.142.184.189.055-.057l.042.064c.063-.037.045-.129.089-.171a1.872,1.872,0,0,1-.147-.322c.074.038.207.16.242.118a1.557,1.557,0,0,0-.142-.287c.106.171.142.127.193.265.037-.061.049-.075.033-.257a.9.9,0,0,1-.108-.153c0-.036.072.055.12.139l.008.02c-.077-.306.478.4.326,0l.007.02-.047-.226c.048.013.059.141.145.235-.1-.33.134-.021.078-.248.343.488.136-.127.385.167l-.073-.12c-.053-.128.058.058.086.079a1.125,1.125,0,0,1-.108-.171c.047-.223.373.024.567.059.068.005-.325-.647-.1-.391l.109.237c-.053-.329.208-.1.179-.388.023.056.06.124.049.129.112.154.081-.034.008-.169.024.007.07.12.117.184.074.087-.063-.24.038-.081a.226.226,0,0,1,.027.072c-.031-.087.074-.013-.042-.2.086.072.024-.123.115-.026-.1-.225.119.069-.038-.237.165.315.2.218.145.058.042.1.073.087.134.224.024-.019.018-.09-.072-.248.248.35-.06-.355.222.112a1.46,1.46,0,0,1,.039-.476c.16.316-.064.073.111.4,0-.165-.1-.456.008-.416.039.034.06.142.082.2,0-.166.147-.039.12-.241a.434.434,0,0,1,.031.092c.007-.017.052.033-.023-.11l.008.045a3.611,3.611,0,0,1-.226-.572c.188.422.113.073.344.61a.887.887,0,0,0-.081-.2.5.5,0,0,1,.1.192c0-.1-.089-.245-.048-.262.035.07.041.1.078.185-.049-.145-.1-.292-.034-.249.019.042.05.1.039.1.046-.05-.083-.411.045-.311.132.313.071.089.2.351l0-.1-.077-.121c.032-.01-.036-.215.031-.141l.031.12.031-.077-.081-.085c-.036-.15-.167-.332-.091-.278.005.031.031-.011.123.137h0c-.026-.091-.054-.187,0-.133l.169.349c-.093-.228.039-.1-.056-.34a2.283,2.283,0,0,0,.1.224l-.075-.185a.683.683,0,0,1,.109.189c.057.013-.175-.329-.057-.208,0,.017.018.042.024.074.086.051.041-.16.129-.094.141.26-.009.085.114.3.042-.08-.017-.385.077-.352l-.026-.024c-.169-.381.136.164.084-.029a1.466,1.466,0,0,0,.071.171c.072.04.046-.134.057-.285l.037.1c.066.075.091.018.14.05a.9.9,0,0,0-.089-.23c.341.514.028-.374.316.053a.181.181,0,0,0,.024.093l.024-.12a1.539,1.539,0,0,0-.126-.219c-.037-.1-.053-.186-.036-.193a1.117,1.117,0,0,0,.175.352l-.071-.158c.168.279-.145-.336-.008-.159l.037.088c0-.052-.039-.175-.008-.158.094.188.021.1.091.256.021-.023-.111-.387,0-.207.013.059,0,.067.009.125.127.213.1.155.14.182l0,0,.09.082-.039-.056c-.19-.515.026-.122-.075-.47a1.484,1.484,0,0,0,.166.4.862.862,0,0,1,.108.178c-.057-.185.1.123.012-.147.032.069.026,0,.1.175,0-.067-.06-.119-.1-.208-.063-.259.227.248.144-.108-.006-.158-.1-.4-.1-.539a.959.959,0,0,1,.1.262c.072.092.083.064.074-.027a1.119,1.119,0,0,0,.09.189c.013-.027-.1-.262-.025-.17l.1.292c0-.075-.038-.217-.04-.291a1.337,1.337,0,0,1,.09.277.631.631,0,0,0-.05-.34l-.047-.061a.869.869,0,0,1,.084.2c.041.163-.063-.052-.1-.123l0-.053c-.2-.406-.042.1-.087.088l-.115-.307.071.265a1.2,1.2,0,0,1-.121-.293c-.089-.137.024.116-.07-.039a.193.193,0,0,1-.021-.053l.013.1c-.022-.065-.1-.211-.061-.174-.12-.153.025.256-.09.036l0-.02c-.018.128.09.223.156.5l-.269-.529.09.223c-.009,0-.029-.016-.065-.105a1.958,1.958,0,0,0,.094.242c-.12-.187-.044.131-.205-.216.063.172.086.116.1.247-.175-.372-.009.082-.113-.079-.078-.2-.006-.107-.11-.268.128.336-.087-.047-.083.027.116.261,0,.132,0,.237-.037-.089-.139-.109-.219-.187l-.018-.044c.112.267.051.234.048.3a1.468,1.468,0,0,1-.111-.3l-.026.013a.421.421,0,0,1,.041.173l-.083-.2c-.03.027.035.263-.07.152a3.182,3.182,0,0,1,.278.638,2.18,2.18,0,0,1-.133-.313c0,.015.024.089,0,.05l-.058-.175c-.053-.064.053.144.031.136-.064-.141-.058-.1-.108-.208,0-.016.041.051.022-.007a.577.577,0,0,1-.147-.193.778.778,0,0,1,.082.215c-.03.027-.09-.164-.143-.227.036.1-.033.011.065.222-.011,0-.058-.094-.089-.149.025.1-.072.066.053.28l.012.013v.011h0c.039.236-.177-.062-.193.055l-.033-.071c0,.1-.055.084-.009.246a.689.689,0,0,1-.12-.2c0,.065.033.145-.061.048-.031-.135-.06-.1-.015-.1-.064-.044-.125-.152-.071.057-.073-.186-.134-.213-.124-.152l.086.116c-.006.035-.03.028-.053.02l-.1-.24c-.209-.252.108.55-.178.1.061.174.094.1.171.3a3.618,3.618,0,0,1-.256-.333c-.109-.109.126.363.036.3a1.386,1.386,0,0,1,.167.4,1.2,1.2,0,0,1-.226-.409c0-.011.021.014.035.042a.318.318,0,0,0-.066-.163l.037.086c-.058-.078-.1-.047-.156-.189a.281.281,0,0,0,.1.177c-.1-.1-.068.028-.15-.031a.584.584,0,0,1,.077.14c-.113-.072.051.172.028.23-.087-.116-.142-.308-.132-.18a.85.85,0,0,1-.14-.292c.042.181-.126-.068-.163-.087l-.013-.078c.008.046,0,.05-.013.055l.1.16a.173.173,0,0,1-.072-.088c.042.116.149.273.2.435-.058-.077,0,.116-.12-.1.088.05-.118-.219-.093-.277,0,.031-.006.035-.033.012a.2.2,0,0,1-.024-.061c-.148-.173.1.262.051.281-.057-.127-.131-.23-.126-.2a.926.926,0,0,1,.145.307c-.081-.08,0,.09-.02.087l.042.036c.057.127.032.119.03.169-.051-.1-.013-.076-.043-.115.086.23-.171-.2-.131-.034-.059-.076-.121-.233-.164-.282.044.181-.13-.149-.1.005a.786.786,0,0,1,.134.3l.006-.152.082.264c.021-.008-.012-.127.015-.1a.685.685,0,0,0,.111.237c-.156-.236.021.175-.1.022l-.212-.414c-.143-.159.025.256-.09.185l.057.061c.077.168-.026.042-.012.12a1.932,1.932,0,0,0-.162-.263c.054.1-.05.014.088.292l-.123-.167c-.09-.048.149.421.077.4a2.189,2.189,0,0,1-.162-.366c-.017.007-.045-.01.006.085-.055-.081.053.208-.031.086.025.064.1.208.076.207l-.036-.068a1.1,1.1,0,0,0,.117.251c-.277-.4-.119.1-.359-.239a.333.333,0,0,1-.053.158c-.02-.042-.037-.068-.024-.057-.112-.1.186.406.06.291-.145-.207-.039-.134-.1-.208-.251-.445-.026.094-.2-.15l-.006-.031c-.109-.138.031.2-.028.194l-.037-.068a.856.856,0,0,1,.081.434,1.377,1.377,0,0,0-.139-.276c0,.035.164.283.156.352a2.936,2.936,0,0,1-.245-.346l.028-.029c-.154-.236-.039.033-.08,0l-.057-.109c-.032.064.118.334.052.345l.051.078c.12.284-.109-.136-.027.079l-.161-.266a2.169,2.169,0,0,1,.071.371,3.118,3.118,0,0,1-.151-.471c-.02.009-.056.058.009.2-.006-.03-.034-.1,0-.064q.144.339.082.365c-.291-.527-.177-.075-.437-.463.042.233-.185,0-.249.076.263.388-.017.025.23.438,0,.037-.014.035-.031.009l-.2-.215c-.084-.113-.035-.1-.092-.194-.06-.008-.119-.166-.211-.26.092.145.11.221.053.178l.145.172c.072.254-.254-.319-.184-.067l-.058-.141c.015.094-.112.062.056.412a.786.786,0,0,1-.112-.192c-.1-.006.053.447-.123.277l-.055-.1c0,.037.09.2.013.111a.6.6,0,0,0-.065-.105c.014.039.072.2.019.149l-.053-.123c-.149-.09.06.34.046.443a.921.921,0,0,0-.349-.39l-.024-.042c-.1.013.015.329.013.489-.244-.291-.237-.037-.423-.17a1.037,1.037,0,0,1,.147.267c-.055-.049.081.233-.086-.037h.009c-.179-.255-.171-.163-.2-.153l.218.354c-.4-.464-.068.307-.4-.123.039.1.017.111.056.209l-.12-.188c-.079-.017-.119-.024-.149.058l-.075-.142c-.042.01.307.566.284.6l-.19-.272c-.056.041-.274-.164-.165.127a.632.632,0,0,1-.076-.141c-.031.011-.23-.117.032.256-.164-.247-.076.016-.034.145l-.116-.186c.129.25.171.315.177.4-.024-.018-.1-.142-.062-.1-.093-.076.093.187-.007.113l-.064-.124c-.039.006,0,.066.079.212.031.086-.086-.009-.2-.17.064.1.138.248.089.212a.628.628,0,0,1-.074-.124c-.133-.09.07.261-.084.105a1.037,1.037,0,0,0-.079-.1c.042-.023.08-.034.086-.019a2.783,2.783,0,0,1-.3-.423c.06.143.2.447.118.389l-.043-.055-.009-.02c-.018-.012-.014.008,0,.04-.029-.02-.049-.037-.06-.032-.1-.136-.087-.05-.108-.046a1.984,1.984,0,0,0,.208.3.033.033,0,0,1-.006-.039.076.076,0,0,0-.006-.024l.009.017a.183.183,0,0,1,.031-.039c.051.1.091.188,0,.1l.18.309c-.2-.24-.332-.348-.445-.5a.7.7,0,0,0,.139.508c.017.053-.083-.087-.126-.138-.016-.039,0-.041-.032-.093.033.106-.057.09.1.332-.109-.083-.134-.232-.153-.16l-.045-.078c-.359-.314.277.712-.167.3a.385.385,0,0,1,.071.075c-.267-.131-.1.368-.451.112-.082-.044.024.109.086.237l-.146-.187.127.246c.072.2-.425-.41-.262-.06l.1.123c-.039-.009-.013.126-.118-.025.015.025.091.139.034.078l-.075-.1.074.21c-.094-.042-.287-.4-.362-.377a1.564,1.564,0,0,0,.21.4c.013,0,.069.045.144.145l.019.067a4.809,4.809,0,0,0,.624.778l-.1-.205.116.135-.021.03c.116.122.038,0-.011-.094a1.188,1.188,0,0,0,.13.147l-.174-.306a1.771,1.771,0,0,0,.223.287,4.025,4.025,0,0,1-.243-.352c.115.122.19.235.126.107a.829.829,0,0,1,.107.164c-.05-.1.017-.071-.09-.234.138.153.025-.085.228.2a1.1,1.1,0,0,1-.123-.264c.216.356.073-.023.326.342-.2-.317-.021-.19-.105-.385.015.026.046.078.032.064.039.01.11.1.165.144a3.318,3.318,0,0,1-.278-.5,6.242,6.242,0,0,1,.37.532c-.147-.2-.1-.234-.23-.4a2.167,2.167,0,0,1,.227.261c-.22-.316-.019-.066-.14-.271.138.134.217.289.18.171A.752.752,0,0,1,581.493,273.862Zm.373-1.072,0,0-.009.02Zm.062-.047a.043.043,0,0,0-.033.012.442.442,0,0,1-.078-.129A.654.654,0,0,0,581.929,272.743Zm-1-1.172c-.007-.033.021,0,.048.037a.09.09,0,0,0,0,.035l.014.023Z" transform="translate(-579.647 -267.884)" fill="#4a3e32"/>
      <path id="パス_548" data-name="パス 548" d="M581.462,272.854l0,.017.034.037-.035-.06Z" transform="translate(-580.035 -268.914)" fill="#4a3e32"/>
      <path id="パス_549" data-name="パス 549" d="M589.648,268.67l0,0,.016.028Z" transform="translate(-581.783 -268.021)" fill="#4a3e32"/>
      <path id="パス_550" data-name="パス 550" d="M583.972,273.714l-.03-.047.021.045Z" transform="translate(-580.565 -269.089)" fill="#4a3e32"/>
      <path id="パス_551" data-name="パス 551" d="M590.553,269.317l.028.05Z" transform="translate(-581.977 -268.16)" fill="#4a3e32"/>
      <path id="パス_552" data-name="パス 552" d="M590.794,269.278l.057.061A.362.362,0,0,0,590.794,269.278Z" transform="translate(-582.029 -268.151)" fill="#4a3e32"/>
      <path id="パス_553" data-name="パス 553" d="M591.006,269.307l-.035-.087v0Z" transform="translate(-582.066 -268.139)" fill="#4a3e32"/>
      <path id="パス_554" data-name="パス 554" d="M588.568,270.862a.025.025,0,0,0,0,.012C588.576,270.918,588.576,270.9,588.568,270.862Z" transform="translate(-581.553 -268.49)" fill="#4a3e32"/>
      <path id="パス_555" data-name="パス 555" d="M589.041,269.893l.027.1C589.086,270.006,589.1,270.005,589.041,269.893Z" transform="translate(-581.654 -268.283)" fill="#4a3e32"/>
      <path id="パス_556" data-name="パス 556" d="M587.881,271.6l0,0,0,0Z" transform="translate(-581.405 -268.646)" fill="#4a3e32"/>
      <path id="パス_557" data-name="パス 557" d="M589.037,270.031c.03.035.035.021.03-.01C589.051,270.012,589.03,270,589.037,270.031Z" transform="translate(-581.653 -268.308)" fill="#4a3e32"/>
      <path id="パス_558" data-name="パス 558" d="M591.785,269.129l.009.006-.013-.033Z" transform="translate(-582.24 -268.114)" fill="#4a3e32"/>
      <path id="パス_559" data-name="パス 559" d="M591.781,269.094l0-.027S591.772,269.071,591.781,269.094Z" transform="translate(-582.239 -268.106)" fill="#4a3e32"/>
      <path id="パス_560" data-name="パス 560" d="M591.768,268.993l.007.058C591.781,269.049,591.79,269.053,591.768,268.993Z" transform="translate(-582.237 -268.091)" fill="#4a3e32"/>
      <path id="パス_561" data-name="パス 561" d="M591.515,269.111l.03.075Z" transform="translate(-582.183 -268.116)" fill="#4a3e32"/>
      <path id="パス_562" data-name="パス 562" d="M591.458,269.157c.02.011.1.143.1.09l-.024-.059C591.57,269.3,591.416,269.028,591.458,269.157Z" transform="translate(-582.169 -268.118)" fill="#4a3e32"/>
      <path id="パス_563" data-name="パス 563" d="M590.654,268.072l.071.039c-.042-.075-.1-.175-.086-.2C590.479,267.7,590.727,268.078,590.654,268.072Z" transform="translate(-581.984 -267.845)" fill="#4a3e32"/>
      <path id="パス_564" data-name="パス 564" d="M590.414,268.026c.008-.047-.051-.113-.069-.158A.274.274,0,0,0,590.414,268.026Z" transform="translate(-581.933 -267.85)" fill="#4a3e32"/>
      <path id="パス_565" data-name="パス 565" d="M589.135,268.6l-.084-.182C589.045,268.456,589.085,268.491,589.135,268.6Z" transform="translate(-581.656 -267.968)" fill="#4a3e32"/>
      <path id="パス_566" data-name="パス 566" d="M589.489,269.943l.072.1-.072-.17Z" transform="translate(-581.75 -268.279)" fill="#4a3e32"/>
      <path id="パス_567" data-name="パス 567" d="M588.555,268.38l0-.03v.081Z" transform="translate(-581.549 -267.953)" fill="#4a3e32"/>
      <path id="パス_568" data-name="パス 568" d="M586.483,269.544l.123.215C586.6,269.714,586.467,269.467,586.483,269.544Z" transform="translate(-581.107 -268.205)" fill="#4a3e32"/>
      <path id="パス_569" data-name="パス 569" d="M585.716,270.291c-.068-.1-.127-.162-.079-.049C585.661,270.248,585.724,270.323,585.716,270.291Z" transform="translate(-580.923 -268.344)" fill="#4a3e32"/>
      <path id="パス_570" data-name="パス 570" d="M582.837,271.431l-.031-.079.011.075Z" transform="translate(-580.322 -268.595)" fill="#4a3e32"/>
    </g>
    <g id="グループ_41" data-name="グループ 41" transform="translate(580.297 275.62)">
      <path id="パス_571" data-name="パス 571" d="M593.771,283.233c.011-.067.023-.22.006-.191l-.035.258Z" transform="translate(-584.171 -280.815)" fill="#4a3e32"/>
      <path id="パス_572" data-name="パス 572" d="M593.7,282.664a3.527,3.527,0,0,0-.08.582c.039-.248.034-.143.079-.438.017-.029.017.086,0,.181.012-.066.017.059.039-.1,0-.2-.021-.213-.061-.05A1.4,1.4,0,0,1,593.7,282.664Z" transform="translate(-584.144 -280.735)" fill="#4a3e32"/>
      <path id="パス_573" data-name="パス 573" d="M592.037,281.986l.005.031A.071.071,0,0,0,592.037,281.986Z" transform="translate(-583.807 -280.59)" fill="#4a3e32"/>
      <path id="パス_574" data-name="パス 574" d="M590.982,281.688a.113.113,0,0,0,.015-.054A.126.126,0,0,0,590.982,281.688Z" transform="translate(-583.581 -280.515)" fill="#4a3e32"/>
      <path id="パス_575" data-name="パス 575" d="M590.834,281.32a.161.161,0,0,0,.007.019C590.839,281.314,590.838,281.3,590.834,281.32Z" transform="translate(-583.55 -280.446)" fill="#4a3e32"/>
      <path id="パス_576" data-name="パス 576" d="M592.032,281.963l-.015-.084C592.008,281.964,592.023,281.943,592.032,281.963Z" transform="translate(-583.802 -280.567)" fill="#4a3e32"/>
      <path id="パス_577" data-name="パス 577" d="M593.4,283.418a.37.37,0,0,0,.018-.067.128.128,0,0,1-.014.026Z" transform="translate(-584.099 -280.882)" fill="#4a3e32"/>
      <path id="パス_578" data-name="パス 578" d="M592.535,281.736h.006c.005-.029.01-.064.016-.1Z" transform="translate(-583.913 -280.514)" fill="#4a3e32"/>
      <path id="パス_579" data-name="パス 579" d="M592.891,281.747c-.005-.01-.028.21-.04.306a.73.73,0,0,1,.028-.149C592.883,281.862,592.887,281.811,592.891,281.747Z" transform="translate(-583.981 -280.539)" fill="#4a3e32"/>
      <path id="パス_580" data-name="パス 580" d="M593.43,282.286l.011-.029C593.438,282.266,593.434,282.274,593.43,282.286Z" transform="translate(-584.104 -280.648)" fill="#4a3e32"/>
      <path id="パス_581" data-name="パス 581" d="M592.281,281.657c0-.032,0-.061,0-.079C592.283,281.606,592.282,281.632,592.281,281.657Z" transform="translate(-583.859 -280.503)" fill="#4a3e32"/>
      <path id="パス_582" data-name="パス 582" d="M581.94,282.806l0-.039A.1.1,0,0,0,581.94,282.806Z" transform="translate(-581.649 -280.757)" fill="#4a3e32"/>
      <path id="パス_583" data-name="パス 583" d="M581.651,281.354l.006-.011c0-.042.009-.083.013-.123Z" transform="translate(-581.588 -280.427)" fill="#4a3e32"/>
      <path id="パス_584" data-name="パス 584" d="M590.533,280.929v0C590.543,280.909,590.539,280.913,590.533,280.929Z" transform="translate(-583.485 -280.362)" fill="#4a3e32"/>
      <path id="パス_585" data-name="パス 585" d="M587.425,280.846c.009.2-.068.248-.048.471A2.4,2.4,0,0,0,587.425,280.846Z" transform="translate(-582.81 -280.347)" fill="#4a3e32"/>
      <path id="パス_586" data-name="パス 586" d="M593.395,283.4s-.009,0-.012,0S593.391,283.407,593.395,283.4Z" transform="translate(-584.094 -280.892)" fill="#4a3e32"/>
      <path id="パス_587" data-name="パス 587" d="M587.378,281.445v0l0,.021Z" transform="translate(-582.811 -280.475)" fill="#4a3e32"/>
      <path id="パス_588" data-name="パス 588" d="M589.745,281.027c0,.039,0,.068,0,.1C589.744,281.1,589.745,281.073,589.745,281.027Z" transform="translate(-583.316 -280.385)" fill="#4a3e32"/>
      <path id="パス_589" data-name="パス 589" d="M590.28,281.472l-.008-.031A.067.067,0,0,0,590.28,281.472Z" transform="translate(-583.43 -280.474)" fill="#4a3e32"/>
      <path id="パス_590" data-name="パス 590" d="M589.406,281.385c0-.018,0-.048-.015-.02a.15.15,0,0,0,0,.027C589.4,281.363,589.4,281.349,589.406,281.385Z" transform="translate(-583.241 -280.455)" fill="#4a3e32"/>
      <path id="パス_591" data-name="パス 591" d="M589.1,281.366c0,.017,0,.029,0,.045l.009-.012Z" transform="translate(-583.179 -280.458)" fill="#4a3e32"/>
      <path id="パス_592" data-name="パス 592" d="M582.891,282.718c0-.062,0-.131.007-.2C582.888,282.676,582.847,282.728,582.891,282.718Z" transform="translate(-581.848 -280.704)" fill="#4a3e32"/>
      <path id="パス_593" data-name="パス 593" d="M593.414,283.279a.467.467,0,0,1-.016.094l.009-.011A.787.787,0,0,0,593.414,283.279Z" transform="translate(-584.098 -280.867)" fill="#4a3e32"/>
      <path id="パス_594" data-name="パス 594" d="M589.177,283.59l-.035-.036C589.151,283.576,589.163,283.589,589.177,283.59Z" transform="translate(-583.188 -280.925)" fill="#4a3e32"/>
      <path id="パス_595" data-name="パス 595" d="M585.126,282.944l-.011.026S585.121,282.969,585.126,282.944Z" transform="translate(-582.328 -280.795)" fill="#4a3e32"/>
      <path id="パス_596" data-name="パス 596" d="M588.986,283.539a.99.99,0,0,0-.007-.154c0,.017-.006.031-.01.057Z" transform="translate(-583.151 -280.889)" fill="#4a3e32"/>
      <path id="パス_597" data-name="パス 597" d="M582.907,282.516v0Z" transform="translate(-581.856 -280.704)" fill="#4a3e32"/>
      <path id="パス_598" data-name="パス 598" d="M582.315,282.522c.037.009.045-.281.068-.447.052-.078,0,.215,0,.364a3.163,3.163,0,0,1,.1-.324.878.878,0,0,1-.011.125c.051-.227.087,0,.149-.289,0,.025,0,.05,0,.072.008-.145.021-.292.032-.4.017,0,.048-.18.036.01-.009-.007-.017.069-.028.128l.025-.081c-.01.274-.032.092-.051.293.042-.086.1-.307.122-.227-.02.267-.069.083-.057.323l-.031-.105c-.009.422-.021-.031-.036.42.046.082.072-.13.118-.047.025-.147.017-.219.042-.366.1-.259,0,.674.084.326.031-.176.068-.512.091-.33l-.042.3c.049.034.071-.429.1-.223-.02.117-.049.1-.045.132.012.241.041-.167.067-.165l-.02.267c.059-.037.137-.223.2-.266a1.14,1.14,0,0,0-.023.244c.089-.126.16.048.218.212l.05-.226a.476.476,0,0,1-.009.149c.02.09.015-.145.038-.234.017-.015.009.134-.008.2.068-.19.183-.406.213-.155l-.017.067c.032.1.091-.466.109-.248l-.011.04c.08.108.2-.093.235.26.045-.329.075.156.124-.305a2,2,0,0,0,.065.476c.017.023.056-.285.084-.331l-.022.241.057-.25-.01.29.028-.06a.647.647,0,0,1,0-.18c.045-.105.069.176.058.3l.1-.2a.912.912,0,0,1-.045.189c.068-.241-.017.256.046.033,0-.055.017-.143.022-.192.006.148.052.153.092.1l-.022.166c.057.048.137-.068.205-.058a1.153,1.153,0,0,1,.039-.393l-.016.256a1.971,1.971,0,0,1,.033-.289,1.138,1.138,0,0,1-.033.374l.039-.086c-.005.076-.017.116-.028.213.028-.157.03.26.075-.013l-.006.076c.068.009.108-.076.165-.084a2.01,2.01,0,0,1,.073-.345c.035.074.064.252.115.237a1.615,1.615,0,0,0,.057-.315c-.016.2.035.186,0,.328.063-.027.08-.032.171-.188a.964.964,0,0,1,.005-.188c.017-.031.023.087.012.183l-.006.02c.113-.293.139.6.247.192l-.006.02.091-.212c.028.038-.034.149-.022.275.107-.327.115.06.2-.157-.008.6.175-.025.2.359l.009-.14c.03-.134.013.082.022.115a1.182,1.182,0,0,1,.012-.2c.157-.154.274.231.407.371.05.042.1-.718.134-.379l-.043.256c.137-.3.219.032.348-.221-.012.059-.019.136-.029.134,0,.19.081.017.1-.137a1.428,1.428,0,0,1-.007.219c.012.112.079-.235.073-.046a.225.225,0,0,1-.017.074c.023-.09.065.03.072-.188.029.107.084-.09.1.042.043-.241.057.123.1-.219-.036.354.042.292.083.127-.019.107.011.113-.013.26.028,0,.061-.065.073-.248.013.429.138-.331.116.215a1.522,1.522,0,0,1,.278-.379c-.036.353-.087.027-.12.4.086-.138.157-.437.22-.345a.648.648,0,0,1-.037.211c.086-.138.136.046.219-.141a.408.408,0,0,1-.023.094c.014-.01.024.055.038-.105l-.016.042a3.941,3.941,0,0,1,.11-.6c-.065.458.053.122-.037.7a.854.854,0,0,0,.038-.212.539.539,0,0,1-.017.217c.053-.083.054-.256.094-.248-.007.078-.018.107-.031.2.035-.149.071-.3.1-.23-.006.046-.009.108-.019.105.062-.017.14-.394.192-.241-.052.335.012.113-.013.406l.043-.084v-.143c.031.008.078-.2.1-.1l-.035.119.063-.05-.022-.114c.046-.147.032-.37.065-.285-.011.029.031.006.03.18h0c.024-.091.049-.188.065-.113,0,.094-.035.323-.038.385.039-.243.079-.061.123-.319a2.376,2.376,0,0,0-.028.245l.031-.2a.78.78,0,0,1-.006.218c.039.041.021-.372.057-.207-.005.015-.007.045-.018.075.043.088.111-.116.149-.015-.014.3-.048.068-.056.318.073-.046.174-.339.233-.263l-.009-.034c.048-.414.029.21.081.017a1.411,1.411,0,0,0-.026.183c.039.072.1-.093.182-.217l-.018.106c.017.1.064.061.088.112a.909.909,0,0,0,.038-.243c.031.616.2-.31.23.2a.183.183,0,0,0-.024.093l.076-.092a1.817,1.817,0,0,0,0-.252c.018-.107.045-.188.061-.186a1.182,1.182,0,0,0-.024.392c0-.055.013-.116.017-.173,0,.326.04-.363.068-.142l-.012.094c.022-.046.05-.171.068-.142-.013.21-.028.1-.046.268.028-.01.091-.392.1-.181-.017.057-.034.057-.051.113,0,.248.013.186.028.227V282.5l.035.116-.006-.068c.086-.542.079-.093.158-.446a1.6,1.6,0,0,0-.052.432.876.876,0,0,1,0,.208c.04-.189.022.154.079-.123a.662.662,0,0,1,0,.2c.034-.057.006-.134.017-.229.068-.257.072.326.167-.027.067-.142.1-.4.163-.522a1,1,0,0,1-.04.277c.016.115.039.1.072.012a1.124,1.124,0,0,0-.012.209c.022-.018.04-.277.056-.162-.013.085-.031.221-.05.305.031-.068.068-.208.1-.274a1.528,1.528,0,0,1-.051.286.67.67,0,0,0,.112-.323l-.011-.077a.923.923,0,0,1-.023.219c-.04.163-.027-.076-.022-.153l.022-.047c.024-.45-.078.064-.111.035l.046-.324-.062.267a1.32,1.32,0,0,1,.035-.315c-.01-.163-.034.114-.039-.068a.216.216,0,0,1,.006-.057l-.034.1c.011-.068.017-.23.028-.182-.027-.192-.1.237-.089-.01l.005-.02c-.072.1-.028.239-.1.515l.025-.593-.029.238c-.006-.009-.017-.028,0-.123a2.111,2.111,0,0,0-.035.258c-.01-.221-.1.094-.065-.288-.028.18.016.142-.029.266.03-.41-.045.067-.055-.124.028-.21.045-.1.035-.287-.051.355-.048-.083-.078-.017-.028.284-.063.113-.112.2.011-.1-.061-.164-.088-.27l.005-.048c-.035.287-.068.23-.1.286a1.551,1.551,0,0,1,.051-.315H590.2a.484.484,0,0,1-.047.171l.027-.215c-.036.009-.094.247-.126.1a3.469,3.469,0,0,1-.077.69,2.3,2.3,0,0,1,.041-.337c-.005.014-.024.089-.027.042l.036-.18c-.013-.083-.025.151-.04.133.015-.155,0-.112.013-.234.005-.014.008.065.02.005a.644.644,0,0,1-.025-.241.882.882,0,0,1-.035.227c-.036.008.005-.187-.007-.268-.019.106-.03-.007-.053.224a.8.8,0,0,1,0-.174c-.028.1-.087.021-.09.269l0,.017,0,.009h0c-.081.224-.111-.142-.179-.05l.008-.077c-.043.085-.083.045-.124.209a.751.751,0,0,1,0-.235c-.032.055-.043.142-.07.01.039-.132,0-.12.037-.1-.028-.07-.024-.194-.082.013.031-.2,0-.252-.025-.194l.011.144c-.021.027-.036.008-.051-.01l.034-.259c-.041-.324-.179.527-.183-.009-.036.18.026.131-.011.343a3.579,3.579,0,0,1-.038-.417c-.031-.149-.079.377-.116.274a1.486,1.486,0,0,1-.064.425,1.312,1.312,0,0,1,.024-.466c.009-.007.009.023.006.054a.344.344,0,0,0,.028-.174l-.013.093c-.007-.1-.053-.09-.028-.242a.3.3,0,0,0-.011.2c-.029-.138-.065-.01-.1-.1a.683.683,0,0,1-.009.16c-.052-.121-.045.174-.091.211-.011-.144.041-.337-.014-.223a.927.927,0,0,1,.036-.322c-.057.175-.063-.124-.083-.16l.028-.073c-.016.043-.027.042-.037.04l-.006.186a.2.2,0,0,1-.012-.112c-.024.121-.02.31-.061.474-.007-.1-.059.1-.041-.15.043.088.017-.249.065-.284-.011.028-.021.026-.03-.008a.227.227,0,0,1,.011-.064c-.028-.225-.049.277-.1.267.02-.138.013-.265,0-.236a1.016,1.016,0,0,1-.042.337c-.022-.112-.042.077-.059.063l.015.053c-.02.138-.035.119-.061.16.009-.108.028-.072.024-.12-.049.241-.033-.259-.083-.1-.008-.1.023-.261.015-.326-.057.177-.025-.194-.08-.05a.851.851,0,0,1-.046.322l.081-.125-.069.268c.02,0,.054-.114.064-.081a.745.745,0,0,0-.034.26c0-.283-.072.158-.086-.035l.045-.462c-.029-.211-.109.23-.162.107l.013.083c-.026.183-.042.022-.069.094a2.224,2.224,0,0,0,.009-.309c-.01.115-.046-.015-.081.293l-.009-.206c-.043-.088-.1.435-.145.377a2.425,2.425,0,0,1,.064-.4c-.017,0-.028-.032-.039.075,0-.1-.065.2-.066.055-.013.068-.031.23-.049.215,0-.031.008-.076.008-.076a1.116,1.116,0,0,0-.039.274c0-.487-.145.021-.149-.4a.334.334,0,0,1-.122.1c.006-.046.007-.077.012-.061-.031-.148-.07.44-.105.275,0-.252.039-.132.032-.228.042-.51-.068.064-.075-.237l.012-.029c-.01-.175-.083.186-.122.145,0,0,.006-.044.007-.076a.893.893,0,0,1-.166.4,1.472,1.472,0,0,0,.04-.307c-.021.027-.025.326-.068.378a3.089,3.089,0,0,1,0-.424l.036-.008c.009-.281-.046,0-.06-.046l.014-.121c-.057.035-.087.342-.143.315l0,.093c-.061.3-.01-.174-.063.05l.02-.31a2.18,2.18,0,0,1-.144.346,3.448,3.448,0,0,1,.138-.473c-.02,0-.072.016-.1.167.011-.029.028-.1.032-.055-.049.241-.093.356-.134.348.064-.6-.092-.161-.077-.63-.094.215-.135-.108-.223-.08-.014.469-.026.011-.066.49-.023.028-.03.02-.028-.011l-.032-.292c0-.141.028-.1.037-.211-.039-.041,0-.205-.015-.335-.01.172-.039.244-.057.176l.013.224c-.084.249-.013-.406-.1-.16l.034-.149c-.04.086-.115-.014-.182.368a.842.842,0,0,1,.022-.221c-.069-.064-.2.393-.24.151l.017-.116c-.017.033-.045.218-.051.1a.657.657,0,0,0,.011-.123c-.012.039-.057.2-.068.131l.028-.13c-.058-.16-.142.31-.21.384a1.017,1.017,0,0,0-.037-.521l.006-.049c-.08-.05-.17.272-.261.4-.013-.378-.149-.172-.208-.389a1.12,1.12,0,0,1-.045.3c-.011-.072-.073.234-.04-.082l.006.006c.016-.311-.03-.232-.058-.243l-.045.413c-.019-.609-.222.2-.212-.341-.028.1-.051.1-.079.2l.022-.221c-.046-.062-.069-.092-.138-.045l.028-.157c-.035-.018-.106.635-.14.644l.021-.331c-.063,0-.1-.3-.189,0a.7.7,0,0,1,.028-.156c-.028-.012-.092-.235-.124.22.027-.3-.062-.035-.108.092l.026-.217a1.335,1.335,0,0,1-.111.425c-.006-.03.009-.175.016-.119-.02-.117-.044.2-.071.085l.027-.138c-.031-.02-.035.055-.068.216-.029.085-.057-.061-.042-.259-.016.12-.049.278-.062.22a.751.751,0,0,1,.021-.142c-.039-.154-.1.245-.121.028a1.107,1.107,0,0,0,.006-.131c.042.009.076.024.071.04a3.174,3.174,0,0,1,.042-.515c-.042.149-.121.474-.146.377,0-.02,0-.039,0-.07l.005-.023c-.006-.02-.015,0-.024.031-.008-.034-.013-.059-.023-.063.013-.167-.031-.094-.047-.1a2.257,2.257,0,0,0-.035.366.033.033,0,0,1,.018-.034.075.075,0,0,0,.009-.022l0,.02a.134.134,0,0,1,.044-.011c-.024.111-.047.2-.055.079-.022.141-.046.285-.057.352.005-.309-.024-.479-.013-.669a.747.747,0,0,0-.2.48c-.02.051-.006-.12-.005-.186a.371.371,0,0,0,.032-.092c-.04.1-.093.033-.127.321-.025-.134.046-.263-.009-.222l.015-.087c-.058-.471-.236.721-.292.118a.478.478,0,0,1,0,.1c-.1-.274-.289.22-.378-.207-.028-.086-.049.1-.085.235l.015-.237-.064.269c-.073.2-.038-.589-.142-.218l-.006.16c-.022-.033-.086.087-.065-.1,0,.029-.024.165-.025.081l.011-.123-.08.206c-.038-.094.054-.49-.011-.521a1.7,1.7,0,0,0-.1.437.456.456,0,0,1,.008.2l-.029.063a5.064,5.064,0,0,0-.06,1l.061-.219,0,.178-.035.008c0,.168.029.023.052-.077a1.386,1.386,0,0,0,0,.2l.072-.344a1.827,1.827,0,0,0-.026.362c.033-.16.013-.321.053-.425,0,.167-.015.3.02.163a.841.841,0,0,1-.028.194c.03-.111.057-.043.085-.236,0,.207.072-.046.037.3a1.139,1.139,0,0,1,.079-.28c-.072.41.065.031.015.473.06-.369.1-.156.167-.359-.005.029-.016.089-.018.069a.92.92,0,0,1,.028.218,3.538,3.538,0,0,1,.115-.561c0,.3-.052.359-.07.644.022-.249.076-.244.085-.451a2.17,2.17,0,0,1,0,.346c.04-.383.027-.063.068-.3.016.192-.025.36.022.246A.785.785,0,0,1,582.315,282.522Zm.927-.581v0l-.019.01Zm.073,0a.035.035,0,0,0-.031-.011.467.467,0,0,1,.021-.149A.687.687,0,0,0,583.316,281.944Zm-.009-1.539c.014-.031.014.013.011.058a.087.087,0,0,0-.022.024l0,.028C583.3,280.473,583.3,280.434,583.307,280.405Z" transform="translate(-581.57 -280.211)" fill="#4a3e32"/>
      <path id="パス_599" data-name="パス 599" d="M583.716,280.821l-.006.016c0,.02,0,.036,0,.05l.011-.068Z" transform="translate(-582.028 -280.341)" fill="#4a3e32"/>
      <path id="パス_600" data-name="パス 600" d="M592.046,282.031l0,0c0,.009,0,.017,0,.031Z" transform="translate(-583.808 -280.599)" fill="#4a3e32"/>
      <path id="パス_601" data-name="パス 601" d="M585.012,283.057l.005-.055-.011.048Z" transform="translate(-582.304 -280.807)" fill="#4a3e32"/>
      <path id="パス_602" data-name="パス 602" d="M592.463,283.041a.346.346,0,0,0,0,.057C592.463,283.083,592.463,283.063,592.463,283.041Z" transform="translate(-583.898 -280.816)" fill="#4a3e32"/>
      <path id="パス_603" data-name="パス 603" d="M592.676,283.125l.017.08A.358.358,0,0,0,592.676,283.125Z" transform="translate(-583.943 -280.834)" fill="#4a3e32"/>
      <path id="パス_604" data-name="パス 604" d="M592.832,283.254c.005-.039.009-.068.012-.094v0Z" transform="translate(-583.977 -280.841)" fill="#4a3e32"/>
      <path id="パス_605" data-name="パス 605" d="M590.112,283.353a.027.027,0,0,0-.006.009C590.09,283.4,590.1,283.388,590.112,283.353Z" transform="translate(-583.392 -280.882)" fill="#4a3e32"/>
      <path id="パス_606" data-name="パス 606" d="M590.969,282.775c-.01.039-.02.078-.03.1C590.948,282.9,590.957,282.9,590.969,282.775Z" transform="translate(-583.572 -280.759)" fill="#4a3e32"/>
      <path id="パス_607" data-name="パス 607" d="M589.191,283.6v0h0Z" transform="translate(-583.198 -280.935)" fill="#4a3e32"/>
      <path id="パス_608" data-name="パス 608" d="M590.9,282.892c.007.045.017.036.029.006C590.923,282.883,590.915,282.859,590.9,282.892Z" transform="translate(-583.564 -280.78)" fill="#4a3e32"/>
      <path id="パス_609" data-name="パス 609" d="M593.552,283.469l.005.01a.293.293,0,0,1,0-.035Z" transform="translate(-584.131 -280.902)" fill="#4a3e32"/>
      <path id="パス_610" data-name="パス 610" d="M593.564,283.437l.009-.026S593.567,283.413,593.564,283.437Z" transform="translate(-584.133 -280.895)" fill="#4a3e32"/>
      <path id="パス_611" data-name="パス 611" d="M593.6,283.343l-.02.053C593.581,283.4,593.587,283.405,593.6,283.343Z" transform="translate(-584.136 -280.88)" fill="#4a3e32"/>
      <path id="パス_612" data-name="パス 612" d="M593.338,283.326l-.01.079C593.331,283.389,593.334,283.363,593.338,283.326Z" transform="translate(-584.083 -280.877)" fill="#4a3e32"/>
      <path id="パス_613" data-name="パス 613" d="M593.27,283.34c.011.019.016.173.038.124l.008-.063C593.3,283.519,593.294,283.206,593.27,283.34Z" transform="translate(-584.07 -280.872)" fill="#4a3e32"/>
      <path id="パス_614" data-name="パス 614" d="M593.106,282l.039.068a.539.539,0,0,1,.023-.219C593.135,281.594,593.161,282.044,593.106,282Z" transform="translate(-584.035 -280.545)" fill="#4a3e32"/>
      <path id="パス_615" data-name="パス 615" d="M592.942,281.847c.028-.038.011-.123.017-.171A.3.3,0,0,0,592.942,281.847Z" transform="translate(-583.999 -280.524)" fill="#4a3e32"/>
      <path id="パス_616" data-name="パス 616" d="M591.669,281.717l.021-.2C591.669,281.544,591.682,281.595,591.669,281.717Z" transform="translate(-583.728 -280.49)" fill="#4a3e32"/>
      <path id="パス_617" data-name="パス 617" d="M591.3,283.049l.006.126.026-.183Z" transform="translate(-583.649 -280.805)" fill="#4a3e32"/>
      <path id="パス_618" data-name="パス 618" d="M591.321,281.229l.011-.028-.038.07Z" transform="translate(-583.648 -280.423)" fill="#4a3e32"/>
      <path id="パス_619" data-name="パス 619" d="M589.172,281.121l-.017.247C589.172,281.324,589.2,281.048,589.172,281.121Z" transform="translate(-583.191 -280.403)" fill="#4a3e32"/>
      <path id="パス_620" data-name="パス 620" d="M588.213,281.316c0-.124-.009-.205-.033-.085C588.195,281.249,588.2,281.347,588.213,281.316Z" transform="translate(-582.983 -280.416)" fill="#4a3e32"/>
      <path id="パス_621" data-name="パス 621" d="M585.495,280.558l.022-.081-.034.066Z" transform="translate(-582.406 -280.268)" fill="#4a3e32"/>
    </g>
  </g>
</svg>
