<svg xmlns="http://www.w3.org/2000/svg" xmlns:xlink="http://www.w3.org/1999/xlink" width="205.397" height="177.005" viewBox="0 0 205.397 177.005">
  <defs>
    <clipPath id="clip-path">
      <path id="パス_383" data-name="パス 383" d="M841.46,466.1c-.362.391-1.052.478-1.593.7.064-.562.09-1.131.207-1.681a3.158,3.158,0,0,1,.434-.8c-1.832-.865-1.971-1.051-1.945-3a5.151,5.151,0,0,1,.365-1.294,8.023,8.023,0,0,1,1.412.56,17.28,17.28,0,0,1,1.6,1.275l1.066-3.79c.527.716.893.992.857,1.2-.432,2.5,1.474,3.192,3.073,4.207a5.858,5.858,0,0,1,2.116,1.986,9.671,9.671,0,0,1,1.081,3.775c.073,1.328-2.075,2.68-3.163,2.3a15.1,15.1,0,0,0-2.192-.5,18.6,18.6,0,0,1-2.24-.365c-.863-.274-1.718-2.265-1.146-2.842.368-.371,1.293-.194,1.968-.257.151-.014.3,0,.585,0-.632-1.049-.539-1.644,1.1-1.186C843.516,464.453,842.94,464.495,841.46,466.1Zm4.732-.777,2.317,3.2C848.747,466.763,847.568,465.973,846.192,465.321Z" transform="translate(-838.561 -458.079)" fill="#4a3e32"/>
    </clipPath>
    <clipPath id="clip-path-2">
      <path id="パス_394" data-name="パス 394" d="M846.969,541.313c.378,3.409.749,6.762,1.124,10.151-1.786.646-2.029.474-2.173-1.431-.226-2.983-.439-5.972-.819-8.937a4.188,4.188,0,0,0-1.234-2.239c-2.755-2.692-2.626-6.03.357-8.5,3.921-3.248,8.594-4.88,13.331-6.451,10.789-3.577,21.725-3.269,32.663-1.118a37.221,37.221,0,0,1,14.363,6.336,8.319,8.319,0,0,1,3.874,6.583c.584-.294,1.03-.527,1.482-.745a17.716,17.716,0,0,1,13.26-1.177c4.258,1.3,6.287,7.882,2.134,11.236a40.8,40.8,0,0,1-11.388,6,45.649,45.649,0,0,1-5.12,1.645,16.47,16.47,0,0,1-3.051.192,25.741,25.741,0,0,1-1.094,3.134c-.2.414-.888.594-1.354.881a5.379,5.379,0,0,1-.223-1.545c.736-4.824,1.522-9.64,2.364-14.9-1.43.454-2.3.766-3.189,1.007a111.557,111.557,0,0,1-34.664,3.779,51.45,51.45,0,0,1-7.5-1.4c-1.174-.235-2.331-.565-3.508-.781C853.5,542.449,850.382,541.915,846.969,541.313Zm22.922-.089q-.04-.269-.08-.538l3.229-3.774-.279-.4a11.187,11.187,0,0,0-3.084.566c-2.212,1.1-2.875,1.051-4.566-1.119l-10.733,3.973-.353-.316c.438-.494.782-1.178,1.331-1.455,5.93-2.99,12.116-5.467,18.827-5.316a131.187,131.187,0,0,1,16.173,1.781,20.261,20.261,0,0,1,5.3,2.076c.366.171.457.931.675,1.419a3.954,3.954,0,0,1-1.446.3c-.753-.142-1.444-.583-2.193-.766a17.754,17.754,0,0,0-2.21-.277l3.652,4.191c2.929-.855,6.529-1.737,10-2.983a3.736,3.736,0,0,0,1.47-5.735,10.661,10.661,0,0,0-2.439-2.347,38.264,38.264,0,0,0-14.995-6.2c-11.85-2.1-23.532-1.641-34.746,3.119a52.4,52.4,0,0,0-8.345,4.816c-1.553,1.032-1.583,2.431-.394,4.364a8.224,8.224,0,0,1,.019-2.23c.134-.421.7-.7,1.08-1.046q1.171,2.235,2.338,4.471c.017.033-.044.105-.125.284l-1.684.2c4.319,2.75,9.013,2.222,12.894,3.636l1.6-1.551a6.142,6.142,0,0,0,1.137,1.442,5.96,5.96,0,0,0,2.318,1.08c6.746,1.052,13.5.486,20.236-.122,2.481-.224,4.941-.682,7.41-1.034l.088-.453a8.251,8.251,0,0,0-1.433-.625c-2.074-.476-4.171-.858-6.237-1.364a7.289,7.289,0,0,1-1.656-.9l1.148-1.666c-3.1-.666-5.882-2.824-9.313-1.535.45.377,1.083.352,1.445.653.905.75,2.974.6,2.5,2.406-.305,1.152-1.384,2.1-2.117,3.139l-.231-.643Zm36.117,7.047c3.564-1.48,6.655-2.736,9.722-4.047a41.223,41.223,0,0,0,4.817-2.3,2.379,2.379,0,0,0,.921-1.884c-.026-.382-1-.891-1.614-1.01a20.744,20.744,0,0,0-11.275,1.027,3.254,3.254,0,0,0-1.777,1.988A59.187,59.187,0,0,0,906.008,548.271Zm3.082-10.743.227.469a17.976,17.976,0,0,1,2.349-.447c2.851-.172,5.705-.365,8.559-.372a3.082,3.082,0,0,1,3.195,2.414,3.35,3.35,0,0,1-1.672,3.834,26.51,26.51,0,0,1-3.767,2.036c-3.016,1.314-6.08,2.514-9.108,3.8a9.131,9.131,0,0,0-1.458.976l.2.5a8.936,8.936,0,0,0,1.8-.234,60.865,60.865,0,0,0,6.74-2.464c2.631-1.257,5.138-2.788,7.64-4.3a4.119,4.119,0,0,0,1.768-4.723,4.533,4.533,0,0,0-3.545-3.69,17.321,17.321,0,0,0-11.566,1.1A7.614,7.614,0,0,0,909.09,537.528Z" transform="translate(-841.889 -521.187)" fill="#4a3e32"/>
    </clipPath>
    <clipPath id="clip-path-3">
      <path id="パス_399" data-name="パス 399" d="M613.774,326.709c1.679,6.867,3.479,13.707,5.025,20.6,2.7,12.054,5.285,24.136,5.687,36.557a2.048,2.048,0,0,0,.978,1.418c2.779,1.491,2.073,3.051-1.113,1.453-.567.755-1.943-.246-1.891-.782a21.48,21.48,0,0,0,.109-4.525c-.754-6.424-1.256-12.908-2.524-19.235-2.47-12.322-5.369-24.558-8.174-36.811a3.662,3.662,0,0,0-1.66-2.136c-4.678-2.507-5.5-5.7-.9-8.806a1.284,1.284,0,0,0,.528-1.765c-1.968-5.992-3.88-12-5.811-18.007a4.477,4.477,0,0,0-.437-1.218c-1.141-1.619-2.337-3.2-3.5-4.8-1.6-2.2-2.906-4.718-4.879-6.5-1.528-1.382-1.291-2.16-.3-3.386.341-.423.686-.844,1.048-1.249.92-1.031,1.771-1.058,2.694.068,2.484,3.031,5.015,6.023,7.533,9.027a15.252,15.252,0,0,1,2.882,5.924c1.774,6.32,3.9,12.542,5.923,18.9l3.377-1.142c4.823-1.633,9.775-1.429,14.712-.879a33.823,33.823,0,0,1,14.779,4.8c3.9,2.5,5.814,5.673,2.47,10.352a4,4,0,0,0-.577,1.505c-2.381,11.676-4.8,23.344-7.09,35.037a85.964,85.964,0,0,0-1.845,19.294c.045,1.423-.114,2.214-1.867,1.772-.655-.165-1.458.356-2.209.45-1.772.221-7.422-.329-8.238-1.035-.8-.69-.653-2.27-2.194-2.419-.17-.016-.352-.749-.39-1.161-.427-4.682.675-9.415-.618-14.09-.422-1.525-.156-3.227-.359-4.829-.182-1.443-.576-2.86-.938-4.585,2.8,1.25,1.694,4.1,2.875,5.727l2.611-1.092v-7.924c0-2.652-1.221-3.879-3.911-4.06-1.143-.077-1.9.235-2.2,1.408a20.407,20.407,0,0,1-.8,2.648c-.128.315-.6.49-.918.728-.2-.379-.633-.8-.573-1.131a19.7,19.7,0,0,1,.879-3.13,2.75,2.75,0,0,1,3.4-2.067c1.351.285,2.679.681,4.034,1.033l.684-1.6.46.006.734,3.528a1.1,1.1,0,0,0,.429-.873c.18-2.494.313-4.994.583-7.479.048-.44.67-.817,1.027-1.224.209.481.612.971.592,1.443-.076,1.846-.348,3.683-.436,5.529-.3,6.394-.559,12.791-.834,19.187l.49.033,2.709-28.251c-1.351.3-2.617.558-3.873.86a1.271,1.271,0,0,0-.657.417c-.358.455-.656.958-.978,1.442l-1.073-1.437c-.915,0-1.894.007-2.872,0-2.465-.022-4.923-.127-7.091-1.5-1.244-.79-1.213-1.327-.108-2.311a8.881,8.881,0,0,0,1.327-1.635c1.083-1.574,2.183-2.033,3.877-1.177a10.272,10.272,0,0,1,3.828,2.671c1.75,2.465,3.836,2.176,6.151,1.441,1.242-.394,2.459-.87,3.682-1.322a13.557,13.557,0,0,1,1.973-.751c1.128-.222,1.65.427,1.3,1.527-.148.464-.41.89-.592,1.344-2.243,5.576-2.9,11.5-3.888,17.37a2.853,2.853,0,0,0,.694-.9c1.7-3.067,2.117-6.479,2.732-9.854a64.972,64.972,0,0,1,1.709-6.788c.1-.354.893-.505,1.366-.75a8.928,8.928,0,0,1-.066,1.488c-.448,2.16-1.356,4.332-1.258,6.46a13.24,13.24,0,0,1-.35,3.537c-.755,3.524-1.416,7.069-2.114,10.6l.589.107c.207-1.089.413-2.177.64-3.378l1.255-.106,6.074-27.915c-1.571.454-2.951.773-4.266,1.266a5.076,5.076,0,0,0-1.865,1.267,1.65,1.65,0,0,1-2.593.217l1.25-.939-.191-.409c-.583.169-1.164.343-1.748.505-1.376.382-2.758,1.1-4.13,1.078a51.615,51.615,0,0,1-18.081-3.621c-.946-.367-1.905-.7-3.129-1.15C613.527,325.473,613.625,326.1,613.774,326.709Zm19.5-5.17c-.9-.624-1.574-.341-2.164.563a18.414,18.414,0,0,1-2.1,2.687c-.286.3-.92.259-1.394.374.049-.48-.054-1.057.176-1.422.637-1.006,1.413-1.924,2.135-2.876,1.154-1.524,2.369-1.945,3.944-.851a72.079,72.079,0,0,1,6.725,5.379,2.37,2.37,0,0,0,2.59.761c1.231-.424,2.474-.812,3.7-1.238,1.908-.659,2.6-2.449,3.257-4.028a3.416,3.416,0,0,0-.739-2.928,14.7,14.7,0,0,0-4.213-3.269,40.233,40.233,0,0,0-23.542-3.4,35.562,35.562,0,0,0-4.7,1.336c-.905.258-1.212.746-.875,1.692,1.15,3.227,2.22,6.483,3.406,9.7a2.192,2.192,0,0,0,1.264,1.261c3.761.839,7.539,1.612,11.336,2.265.622.107,1.358-.495,2.053-.735a4.872,4.872,0,0,1,1.346-.341c1.17-.048,2.344-.016,3.516-.016l.219-.685C637.233,324.353,635.266,322.927,633.27,321.539Zm-25.021-2.648c-.087.823,1.37,1.81,2.368,3a8.255,8.255,0,0,1,.588-1.456c.168-.232.5-.506.73-.487s.66.4.637.58c-.284,2.177,1.46,2.368,2.813,2.933.579.242,1.181.429,2.229.806L614.143,314c-1.373.1-1.757.611-1.1,1.771.67,1.183,1.351,2.363,1.928,3.591.162.344-.028.853-.056,1.286-.421-.126-1.041-.119-1.23-.4-1-1.483-1.884-3.038-3.152-5.134C609.6,316.55,608.381,317.662,608.249,318.891Zm4.83-8.24c-1.6-4.611-3.025-9.284-4.583-13.912a1.7,1.7,0,0,0-1.168-.869c-.215-.038-.876.746-.8,1,1.6,5.329,3.276,10.635,4.921,15.9C613.207,312.536,613.559,312.033,613.079,310.65ZM603.1,286.482a1.636,1.636,0,0,0-.165-1.4c-1.481-1.8-3.028-3.557-4.6-5.282-.527-.578-1.178-1.38-2.05-.581s-.106,1.376.4,2.049c2.173,2.914,4.265,5.888,6.429,8.809.308.416,1.08,1.028,1.236.927a12.99,12.99,0,0,0,1.875-1.731l-1.1-.719C602.541,288.648,602.345,288.318,603.1,286.482Zm37.663,73.64-.374-.115c-.479,1.779-1.069,3.537-1.41,5.342-.5,2.666-.485,5.485-1.356,8.008-.563,1.629-.726,2.677.3,4.06.451.606.343,1.626.489,2.458l.2-.011Q639.7,369.993,640.767,360.123Zm-15-25.991c-2.726-1.9-3.27-1.745-4.892,1.325,2.2,1.395,4.621,1.024,6.986,1.036l.216-.416C627.314,335.424,626.593,334.706,625.771,334.132Zm1.592,29.159a6.9,6.9,0,0,0,.348,3.031,12.506,12.506,0,0,0,1.608,2.491v-7.931A2.468,2.468,0,0,0,627.363,363.291Zm10.48-6.048a12.565,12.565,0,0,0-1.923,8C637.786,362.856,637.389,359.953,637.843,357.243Zm1.389-21.427-1.708.318c-.232,2.1-.446,4.037-.66,5.973l.33.058C637.845,340.139,638.495,338.113,639.232,335.816Zm-33.139-41.139c1.937-.659,1.99-.938.655-3.48C605.141,292,605.018,292.646,606.092,294.677Zm29.147,81.858-.577.059.437,3.431.545-.055C636.67,378.684,635.471,377.668,635.239,376.535Zm-5.492-2.992-.312,0v5.594l.654-.025Q629.918,376.33,629.747,373.543Z" transform="translate(-594.115 -276.742)" fill="#4a3e32"/>
    </clipPath>
  </defs>
  <g id="food-ilust" transform="translate(-591.674 -276.742)" opacity="0.7">
    <g id="グループ_15" data-name="グループ 15" transform="translate(591.674 407.142)">
      <path id="パス_375" data-name="パス 375" d="M608.052,641.042c1.074-.2,2.141-.441,3.221-.6,15.175-2.175,49.458-1,64.784-1.227,12.552-.187,38.526-.8,51.079-1.028,14.9-.271,54.675-.335,69.579-.477a8.235,8.235,0,0,1,1.882.194,3.016,3.016,0,0,1,.878.582c-.294.152-.583.424-.883.437-1.9.083-3.792.12-5.689.153-16.431.294-57.729.563-74.16.882-10.024.2-33.476.457-43.5.705-11.1.275-41.224-1.484-52.274-.251-4.529.505-9.074.858-13.614,1.264a7.983,7.983,0,0,1-1.257-.08Z" transform="translate(-600.177 -595.084)" fill="#4a3e32"/>
      <path id="パス_376" data-name="パス 376" d="M603.217,549.061c-1.244,6.779-8.094,30.217-9.361,36.937a15.547,15.547,0,0,1-.947,2.959c-.113.278-.6.406-.908.6-.114-.341-.379-.712-.318-1.017,1.371-6.823,8.394-30.351,9.818-37.163C601.862,549.652,602.195,549.3,603.217,549.061Z" transform="translate(-591.674 -549.061)" fill="#4a3e32"/>
      <path id="パス_377" data-name="パス 377" d="M1002.77,587.963a5.379,5.379,0,0,1,.66,1.141c.968,3.342,1.857,6.708,2.854,10.042.632,2.113,1.43,4.176,2.1,6.278a4.682,4.682,0,0,1,.027,1.337c-.426-.212-1.079-.316-1.238-.653a24.786,24.786,0,0,1-1.683-4.277c-1.1-4.245-2.071-8.524-3.076-12.793a4.251,4.251,0,0,1-.01-.953Z" transform="translate(-805.525 -569.257)" fill="#4a3e32"/>
    </g>
    <g id="グループ_18" data-name="グループ 18" transform="translate(694.368 353.05)">
      <path id="パス_378" data-name="パス 378" d="M879.9,476.1c-1.95,2.729-3.867,5.483-5.861,8.179-1.131,1.53-2.428,2.938-3.563,4.465a4.23,4.23,0,0,0-.369,1.56c.522-.145,1.214-.129,1.533-.466a31.065,31.065,0,0,0,2.9-3.525c2.279-3.254,4.529-6.531,6.688-9.865a8.383,8.383,0,0,0,.865-2.761,1.055,1.055,0,0,0-.415-.922c-.232-.109-.707.094-.973.3a41.454,41.454,0,0,1-25.091,8.764c-10.675.165-20.644-2.692-30.507-6.3a62.9,62.9,0,0,1-17.1-9.063c-.345-.266-.957-.187-1.445-.269.162.5.168,1.22.51,1.452,3.142,2.133,6.157,4.572,9.561,6.178A101.889,101.889,0,0,0,845.983,483c7.674,1.072,15.37,1.138,22.734-1.655a102.665,102.665,0,0,0,9.907-4.949c.332-.169.634-.4.95-.6Z" transform="translate(-806.558 -451.714)" fill="#4a3e32"/>
      <path id="パス_379" data-name="パス 379" d="M881.411,450.408c.993-.664,1.17-1.44.011-2.647-1.465-1.526-3.1-2.89-4.683-4.3-.681-.607-1.414-1.156-2.124-1.732l.164-.413c2.776.9,5.573,1.748,8.322,2.73,2.714.969,5.746,1.482,7.091,4.7l.588-.354c-.252-.777-.3-1.749-.8-2.286a9.178,9.178,0,0,0-2.991-2.181c-12.69-5.324-25.782-8.628-39.694-7.666-8.218.568-15.811,2.905-22.454,7.917a19.51,19.51,0,0,0-2.408,2.187c-.226.239-.157.756-.224,1.146.432-.021.971.117,1.278-.089,1.622-1.092,3.157-2.312,4.774-3.413a36,36,0,0,1,16.982-5.778,71.068,71.068,0,0,1,26.2,2.189c.784.216,1.479.326,1.233,1.461-.063.292.432.792.774,1.071,1.772,1.442,3.643,2.77,5.347,4.286A26.939,26.939,0,0,1,881.411,450.408Z" transform="translate(-814.681 -436.087)" fill="#4a3e32"/>
      <path id="パス_380" data-name="パス 380" d="M869.09,450.067A9.665,9.665,0,0,1,870.4,449a10.638,10.638,0,0,1-.268,1.578,12.42,12.42,0,0,1-.759,1.569,15.45,15.45,0,0,1,1.576.867,50,50,0,0,1,4.96,3.664,3.13,3.13,0,0,1,.14,4.667,18.186,18.186,0,0,1-3.3,2.216c-.287.188-.551.413-.848.583-.549.314-1.156.908-1.664.839a16.483,16.483,0,0,1-4.388-1.083c-2.869-1.263-3.81-3.144-3.505-6.276.079-.81.11-1.626.174-2.438.067-.849.032-1.531-1.009-1.9a.856.856,0,0,1-.151-1.634,24.575,24.575,0,0,1,3.7-1.236.976.976,0,0,1,.1-.319c.264-.463.549-.913.826-1.368a6.739,6.739,0,0,1,1.064,1.074,17.1,17.1,0,0,1,.93,2.054A14.574,14.574,0,0,1,869.09,450.067Zm6.111,9.849a2.1,2.1,0,0,0-.154-1.807,13.735,13.735,0,0,0-5.972-4.019c-.387,3.373,2.289,5.443,2.837,8.319A3.737,3.737,0,0,0,875.2,459.917Zm-7.479-5.591c-1.07,1.25-.678,2.522-.4,3.791l.614,0Q867.827,456.22,867.721,454.325Zm-.178,8.309-3.482-2.764C864.589,461.495,865.564,462.282,867.543,462.634Z" transform="translate(-834.725 -442.646)" fill="#4a3e32"/>
      <g id="グループ_17" data-name="グループ 17" transform="translate(15.389 10.575)">
        <path id="パス_381" data-name="パス 381" d="M841.46,466.1c-.362.391-1.052.478-1.593.7.064-.562.09-1.131.207-1.681a3.158,3.158,0,0,1,.434-.8c-1.832-.865-1.971-1.051-1.945-3a5.151,5.151,0,0,1,.365-1.294,8.023,8.023,0,0,1,1.412.56,17.28,17.28,0,0,1,1.6,1.275l1.066-3.79c.527.716.893.992.857,1.2-.432,2.5,1.474,3.192,3.073,4.207a5.858,5.858,0,0,1,2.116,1.986,9.671,9.671,0,0,1,1.081,3.775c.073,1.328-2.075,2.68-3.163,2.3a15.1,15.1,0,0,0-2.192-.5,18.6,18.6,0,0,1-2.24-.365c-.863-.274-1.718-2.265-1.146-2.842.368-.371,1.293-.194,1.968-.257.151-.014.3,0,.585,0-.632-1.049-.539-1.644,1.1-1.186C843.516,464.453,842.94,464.495,841.46,466.1Zm4.732-.777,2.317,3.2C848.747,466.763,847.568,465.973,846.192,465.321Z" transform="translate(-838.561 -458.079)" fill="#4a3e32"/>
        <g id="グループ_16" data-name="グループ 16" clip-path="url(#clip-path)">
          <path id="パス_382" data-name="パス 382" d="M874.04,468.652c-1.131,1.53-2.428,2.938-3.563,4.465a4.23,4.23,0,0,0-.369,1.56c.522-.145,1.214-.129,1.533-.466a31.065,31.065,0,0,0,2.9-3.525c2.279-3.254,4.529-6.531,6.688-9.865a8.384,8.384,0,0,0,.865-2.761,1.055,1.055,0,0,0-.415-.922c-.232-.109-.707.094-.973.3a41.454,41.454,0,0,1-25.091,8.764c-10.675.165-20.644-2.692-30.507-6.3A62.894,62.894,0,0,1,808,450.83c-.345-.266-.957-.187-1.445-.269.162.5.168,1.22.51,1.452,3.142,2.133,6.157,4.572,9.561,6.177a101.889,101.889,0,0,0,29.354,9.183c7.674,1.072,15.37,1.138,22.734-1.655a102.658,102.658,0,0,0,9.907-4.949c.332-.169.634-.4.95-.6l.327.3C877.951,463.2,876.034,465.955,874.04,468.652Zm-.74-20.891c-1.465-1.526-3.1-2.89-4.683-4.3-.681-.607-1.414-1.156-2.124-1.732l.164-.413c2.776.9,5.574,1.748,8.322,2.73,2.713.969,5.746,1.482,7.091,4.7l.588-.354c-.252-.777-.3-1.749-.8-2.286a9.178,9.178,0,0,0-2.991-2.181c-12.69-5.324-25.782-8.628-39.694-7.666-8.218.568-15.811,2.905-22.454,7.917a19.506,19.506,0,0,0-2.408,2.187c-.226.239-.157.756-.224,1.146.432-.021.971.117,1.278-.089,1.622-1.092,3.157-2.312,4.774-3.413a36,36,0,0,1,16.982-5.778,71.068,71.068,0,0,1,26.2,2.189c.784.216,1.479.326,1.233,1.461-.063.292.432.792.774,1.071,1.772,1.442,3.642,2.77,5.347,4.286a26.92,26.92,0,0,1,2.623,3.176C874.281,449.745,874.459,448.968,873.3,447.761Zm-34.429-4.525a6.736,6.736,0,0,0-1.064-1.074c-.277.455-.562.9-.827,1.368a.978.978,0,0,0-.1.319,24.57,24.57,0,0,0-3.7,1.236.856.856,0,0,0,.151,1.634c1.042.373,1.076,1.055,1.009,1.9-.064.812-.1,1.628-.175,2.438-.3,3.132.637,5.013,3.505,6.276a16.48,16.48,0,0,0,4.388,1.083c.508.069,1.115-.525,1.664-.839.3-.17.561-.4.848-.583a18.189,18.189,0,0,0,3.3-2.216,3.13,3.13,0,0,0-.14-4.667,50,50,0,0,0-4.96-3.664,15.454,15.454,0,0,0-1.576-.867,12.451,12.451,0,0,0,.759-1.569,10.614,10.614,0,0,0,.268-1.578,9.67,9.67,0,0,0-1.307,1.07,14.584,14.584,0,0,0-1.12,1.782A17.089,17.089,0,0,0,838.871,443.236Zm-11.538,12.932c-.281,0-.434-.012-.585,0-.676.063-1.6-.114-1.968.257-.572.578.283,2.568,1.146,2.842a18.593,18.593,0,0,0,2.24.365,15.106,15.106,0,0,1,2.192.5c1.088.376,3.236-.976,3.162-2.3a9.668,9.668,0,0,0-1.081-3.775,5.859,5.859,0,0,0-2.116-1.986c-1.6-1.015-3.5-1.711-3.073-4.207.036-.206-.33-.482-.858-1.2l-1.066,3.79a17.289,17.289,0,0,0-1.6-1.275,8.027,8.027,0,0,0-1.412-.56,5.143,5.143,0,0,0-.365,1.293c-.027,1.945.113,2.132,1.945,3a3.164,3.164,0,0,0-.434.8c-.117.55-.143,1.119-.207,1.681.54-.227,1.231-.314,1.593-.7,1.48-1.6,2.057-1.645,3.589.3C826.795,454.523,826.7,455.118,827.334,456.167Zm22.822-11.123a2.513,2.513,0,0,0-2.365,3.2,1.158,1.158,0,0,0,.645.777c.247.052.66-.241.861-.493.456-.57.977-1.782,1.207-1.721a10.873,10.873,0,0,1,3.3,1.481c.874.593,1.475,1.578,2.32,2.23.317.245.983.038,1.49.037a3.988,3.988,0,0,0-.222-1.588,21.977,21.977,0,0,0-1.652-1.792,1.219,1.219,0,0,1-.275-.993,1.119,1.119,0,0,1,.892-.5,6.716,6.716,0,0,1,5.521,3c.567.841.323,2.229.445,3.369a9.724,9.724,0,0,0,.285,2.243c.133.366.777.548,1.189.813a7.052,7.052,0,0,0,.408-1.233,5.269,5.269,0,0,0-.15-.954c-.089-1.685.607-2.181,2.036-1.28a17.366,17.366,0,0,1,3.27,2.666c1.938,2.031,1.862,3.166-.094,5.01a1.487,1.487,0,0,0,2.343-.491,3.425,3.425,0,0,0-.019-4c-1.785-2.661-3.788-5.083-7.367-5.329-.3-.021-.68-.439-.826-.763-1.295-2.86-3.676-4.191-6.613-4.641-1.3-.2-2.538.1-3.013,1.448A23.781,23.781,0,0,0,850.156,445.044ZM822.062,471.4a3.749,3.749,0,0,0,1.022.8,16.151,16.151,0,0,0,2.005.516,9.995,9.995,0,0,0-.962-1.754c-2.71-3.234-5.468-6.427-8.2-9.646-.561-.662-1.021-1.413-1.612-2.044a4.6,4.6,0,0,0-1.183-.678l-.3.5C815.7,463.343,818.171,467.893,822.062,471.4Zm32.321-15.033a1.161,1.161,0,0,0-.066.983c.055.14.59.218.842.132,1.151-.395,3.66-4.13,3.654-5.391a2.366,2.366,0,0,0-.251-.667C857.081,453.155,855.7,454.737,854.382,456.363Zm3.482,1.186a.727.727,0,0,0-.262.665c.135.227.532.526.706.465,1.264-.436,2.511-.928,3.732-1.475.173-.077.228-.545.225-.83,0-.124-.289-.244-.4-.334C860.463,456.558,859.151,457.023,857.864,457.549Zm-10.075,3.609a.627.627,0,0,0-.06.557c.247.155.641.369.83.272.805-.415,1.557-.933,2.329-1.414l-.458-.845C849.546,460.2,848.654,460.654,847.789,461.158Zm8.357-.085c-.576.311-1.105.709-1.653,1.072.225.173.535.541.659.486.727-.32,1.411-.74,2.109-1.125l-.255-.521A2.32,2.32,0,0,0,856.146,461.073ZM863.991,443c-.433-.213-.871-.6-1.3-.59s-.853.421-1.279.656l1.315.846Z" transform="translate(-821.947 -446.662)" fill="#4a3e32"/>
        </g>
      </g>
      <path id="パス_384" data-name="パス 384" d="M898.21,454.124a23.782,23.782,0,0,0-3.621-.5,2.513,2.513,0,0,0-2.365,3.2,1.158,1.158,0,0,0,.645.777c.247.052.66-.241.861-.493.456-.57.977-1.782,1.207-1.721a10.875,10.875,0,0,1,3.3,1.481c.874.593,1.475,1.578,2.32,2.23.317.245.983.038,1.49.038a3.985,3.985,0,0,0-.222-1.588,22.009,22.009,0,0,0-1.652-1.792,1.218,1.218,0,0,1-.275-.993,1.119,1.119,0,0,1,.892-.5,6.716,6.716,0,0,1,5.521,3c.567.841.323,2.229.445,3.369a9.73,9.73,0,0,0,.285,2.243c.133.366.777.548,1.189.813a7.053,7.053,0,0,0,.408-1.233,5.291,5.291,0,0,0-.15-.954c-.089-1.685.607-2.181,2.036-1.281a17.362,17.362,0,0,1,3.27,2.666c1.938,2.031,1.862,3.166-.094,5.01a1.487,1.487,0,0,0,2.343-.491,3.426,3.426,0,0,0-.019-4c-1.785-2.661-3.788-5.083-7.367-5.329-.3-.021-.68-.439-.826-.763-1.295-2.86-3.676-4.191-6.613-4.641C899.926,452.477,898.685,452.774,898.21,454.124Z" transform="translate(-850.991 -444.67)" fill="#4a3e32"/>
      <path id="パス_385" data-name="パス 385" d="M856.084,520.914a19.722,19.722,0,0,1-5.285-3.394c-.351-.314-1-.293-1.516-.428.12.52.082,1.171.386,1.54A12.728,12.728,0,0,0,854.1,522C855.5,522.668,859.2,522.281,856.084,520.914Z" transform="translate(-828.739 -478.14)" fill="#4a3e32"/>
      <path id="パス_386" data-name="パス 386" d="M819.607,483.384c2.872,4.252,5.338,8.8,9.229,12.305a3.752,3.752,0,0,0,1.022.8,16.147,16.147,0,0,0,2.005.516,10,10,0,0,0-.962-1.754c-2.71-3.234-5.468-6.427-8.2-9.645-.561-.662-1.021-1.413-1.612-2.044a4.6,4.6,0,0,0-1.183-.678Z" transform="translate(-813.332 -460.379)" fill="#4a3e32"/>
      <path id="パス_387" data-name="パス 387" d="M910.039,467.972c-1.48,1.736-2.856,3.318-4.178,4.944a1.161,1.161,0,0,0-.066.983c.055.14.59.218.841.132,1.151-.395,3.66-4.13,3.655-5.391A2.373,2.373,0,0,0,910.039,467.972Z" transform="translate(-858.037 -452.64)" fill="#4a3e32"/>
      <path id="パス_388" data-name="パス 388" d="M916.947,477.582c-1.4.518-2.708.983-4,1.509a.727.727,0,0,0-.262.664c.135.227.532.526.706.466,1.264-.436,2.511-.928,3.732-1.475.173-.077.227-.545.225-.83C917.35,477.792,917.062,477.671,916.947,477.582Z" transform="translate(-861.646 -457.629)" fill="#4a3e32"/>
      <path id="パス_389" data-name="パス 389" d="M894.836,485.252c-.884.47-1.776.926-2.641,1.43a.628.628,0,0,0-.06.557c.247.155.641.369.83.272.805-.414,1.557-.933,2.329-1.414Z" transform="translate(-850.963 -461.611)" fill="#4a3e32"/>
      <path id="パス_390" data-name="パス 390" d="M908.759,487.867a2.32,2.32,0,0,0-.86.088c-.576.311-1.105.709-1.653,1.072.224.173.535.541.659.486.727-.32,1.411-.74,2.109-1.125Z" transform="translate(-858.311 -462.968)" fill="#4a3e32"/>
      <path id="パス_391" data-name="パス 391" d="M921.953,450.747l1.262-.912c-.433-.213-.871-.6-1.3-.59s-.853.421-1.279.656Z" transform="translate(-865.782 -442.918)" fill="#4a3e32"/>
    </g>
    <g id="グループ_24" data-name="グループ 24" transform="translate(711.357 393.738)">
      <g id="グループ_21" data-name="グループ 21">
        <g id="グループ_20" data-name="グループ 20">
          <path id="パス_392" data-name="パス 392" d="M846.969,541.313c.378,3.409.749,6.762,1.124,10.151-1.786.646-2.029.474-2.173-1.431-.226-2.983-.439-5.972-.819-8.937a4.188,4.188,0,0,0-1.234-2.239c-2.755-2.692-2.626-6.03.357-8.5,3.921-3.248,8.594-4.88,13.331-6.451,10.789-3.577,21.725-3.269,32.663-1.118a37.221,37.221,0,0,1,14.363,6.336,8.319,8.319,0,0,1,3.874,6.583c.584-.294,1.03-.527,1.482-.745a17.716,17.716,0,0,1,13.26-1.177c4.258,1.3,6.287,7.882,2.134,11.236a40.8,40.8,0,0,1-11.388,6,45.649,45.649,0,0,1-5.12,1.645,16.47,16.47,0,0,1-3.051.192,25.741,25.741,0,0,1-1.094,3.134c-.2.414-.888.594-1.354.881a5.379,5.379,0,0,1-.223-1.545c.736-4.824,1.522-9.64,2.364-14.9-1.43.454-2.3.766-3.189,1.007a111.557,111.557,0,0,1-34.664,3.779,51.45,51.45,0,0,1-7.5-1.4c-1.174-.235-2.331-.565-3.508-.781C853.5,542.449,850.382,541.915,846.969,541.313Zm22.922-.089q-.04-.269-.08-.538l3.229-3.774-.279-.4a11.187,11.187,0,0,0-3.084.566c-2.212,1.1-2.875,1.051-4.566-1.119l-10.733,3.973-.353-.316c.438-.494.782-1.178,1.331-1.455,5.93-2.99,12.116-5.467,18.827-5.316a131.187,131.187,0,0,1,16.173,1.781,20.261,20.261,0,0,1,5.3,2.076c.366.171.457.931.675,1.419a3.954,3.954,0,0,1-1.446.3c-.753-.142-1.444-.583-2.193-.766a17.754,17.754,0,0,0-2.21-.277l3.652,4.191c2.929-.855,6.529-1.737,10-2.983a3.736,3.736,0,0,0,1.47-5.735,10.661,10.661,0,0,0-2.439-2.347,38.264,38.264,0,0,0-14.995-6.2c-11.85-2.1-23.532-1.641-34.746,3.119a52.4,52.4,0,0,0-8.345,4.816c-1.553,1.032-1.583,2.431-.394,4.364a8.224,8.224,0,0,1,.019-2.23c.134-.421.7-.7,1.08-1.046q1.171,2.235,2.338,4.471c.017.033-.044.105-.125.284l-1.684.2c4.319,2.75,9.013,2.222,12.894,3.636l1.6-1.551a6.142,6.142,0,0,0,1.137,1.442,5.96,5.96,0,0,0,2.318,1.08c6.746,1.052,13.5.486,20.236-.122,2.481-.224,4.941-.682,7.41-1.034l.088-.453a8.251,8.251,0,0,0-1.433-.625c-2.074-.476-4.171-.858-6.237-1.364a7.289,7.289,0,0,1-1.656-.9l1.148-1.666c-3.1-.666-5.882-2.824-9.313-1.535.45.377,1.083.352,1.445.653.905.75,2.974.6,2.5,2.406-.305,1.152-1.384,2.1-2.117,3.139l-.231-.643Zm36.117,7.047c3.564-1.48,6.655-2.736,9.722-4.047a41.223,41.223,0,0,0,4.817-2.3,2.379,2.379,0,0,0,.921-1.884c-.026-.382-1-.891-1.614-1.01a20.744,20.744,0,0,0-11.275,1.027,3.254,3.254,0,0,0-1.777,1.988A59.187,59.187,0,0,0,906.008,548.271Zm3.082-10.743.227.469a17.976,17.976,0,0,1,2.349-.447c2.851-.172,5.705-.365,8.559-.372a3.082,3.082,0,0,1,3.195,2.414,3.35,3.35,0,0,1-1.672,3.834,26.51,26.51,0,0,1-3.767,2.036c-3.016,1.314-6.08,2.514-9.108,3.8a9.131,9.131,0,0,0-1.458.976l.2.5a8.936,8.936,0,0,0,1.8-.234,60.865,60.865,0,0,0,6.74-2.464c2.631-1.257,5.138-2.788,7.64-4.3a4.119,4.119,0,0,0,1.768-4.723,4.533,4.533,0,0,0-3.545-3.69,17.321,17.321,0,0,0-11.566,1.1A7.614,7.614,0,0,0,909.09,537.528Z" transform="translate(-841.889 -521.187)" fill="#4a3e32"/>
          <g id="グループ_19" data-name="グループ 19" clip-path="url(#clip-path-2)">
            <path id="パス_393" data-name="パス 393" d="M846.969,541.313c3.414.6,6.527,1.136,9.634,1.708,1.178.216,2.334.546,3.508.781a51.45,51.45,0,0,0,7.5,1.4,111.557,111.557,0,0,0,34.664-3.779c.889-.241,1.759-.553,3.189-1.007-.843,5.264-1.628,10.08-2.364,14.9a5.379,5.379,0,0,0,.223,1.545c.466-.287,1.157-.466,1.354-.881a25.741,25.741,0,0,0,1.094-3.134,16.47,16.47,0,0,0,3.051-.192,45.649,45.649,0,0,0,5.12-1.645,40.8,40.8,0,0,0,11.388-6c4.154-3.353,2.124-9.938-2.134-11.236a17.716,17.716,0,0,0-13.26,1.177c-.452.218-.9.451-1.482.745a8.319,8.319,0,0,0-3.874-6.583,37.221,37.221,0,0,0-14.363-6.336c-10.938-2.151-21.875-2.459-32.663,1.118-4.737,1.571-9.409,3.2-13.331,6.451-2.984,2.471-3.112,5.809-.357,8.5A4.188,4.188,0,0,1,845.1,541.1c.38,2.965.593,5.954.819,8.937.144,1.905.387,2.077,2.173,1.431C847.717,548.075,847.346,544.723,846.969,541.313Zm5.406,13.317-.536.423a7.086,7.086,0,0,0,.8,1.375,33.716,33.716,0,0,0,24.123,11.118c10.025.373,19.239-2.76,27.777-7.814,2.17-1.285,3.939-3.266,5.815-5.01.332-.309.288-1.024.417-1.551-.567.123-1.334.052-1.67.4-4.949,5.117-11.211,7.9-17.836,9.941-12.541,3.871-24.33,2.8-34.879-5.7C855.058,556.741,853.713,555.69,852.375,554.63Z" transform="translate(-841.889 -521.187)" fill="#4a3e32"/>
          </g>
        </g>
      </g>
      <g id="グループ_23" data-name="グループ 23" transform="translate(4.702 31.783)">
        <g id="グループ_22" data-name="グループ 22">
          <path id="パス_395" data-name="パス 395" d="M852.2,588.744l-.536.423a7.063,7.063,0,0,0,.8,1.374,33.714,33.714,0,0,0,24.123,11.118c10.025.373,19.24-2.76,27.778-7.814,2.17-1.284,3.938-3.266,5.814-5.01.332-.309.288-1.024.417-1.551-.566.123-1.334.052-1.67.4-4.949,5.117-11.211,7.9-17.836,9.942-12.541,3.87-24.329,2.8-34.879-5.7C854.886,590.856,853.541,589.8,852.2,588.744Z" transform="translate(-851.667 -587.285)" fill="#4a3e32"/>
        </g>
        <path id="パス_396" data-name="パス 396" d="M852.2,588.744c1.338,1.06,2.683,2.112,4.013,3.182,10.549,8.5,22.338,9.568,34.879,5.7,6.625-2.045,12.886-4.824,17.836-9.942.336-.347,1.1-.275,1.67-.4-.129.527-.085,1.243-.417,1.551-1.876,1.744-3.645,3.725-5.814,5.01-8.538,5.054-17.752,8.187-27.778,7.814a33.714,33.714,0,0,1-24.123-11.118,7.063,7.063,0,0,1-.8-1.374Z" transform="translate(-851.667 -587.285)" fill="#4a3e32"/>
      </g>
    </g>
    <g id="グループ_27" data-name="グループ 27" transform="translate(592.848 276.742)">
      <g id="グループ_26" data-name="グループ 26" transform="translate(0)">
        <path id="パス_397" data-name="パス 397" d="M613.774,326.709c1.679,6.867,3.479,13.707,5.025,20.6,2.7,12.054,5.285,24.136,5.687,36.557a2.048,2.048,0,0,0,.978,1.418c2.779,1.491,2.073,3.051-1.113,1.453-.567.755-1.943-.246-1.891-.782a21.48,21.48,0,0,0,.109-4.525c-.754-6.424-1.256-12.908-2.524-19.235-2.47-12.322-5.369-24.558-8.174-36.811a3.662,3.662,0,0,0-1.66-2.136c-4.678-2.507-5.5-5.7-.9-8.806a1.284,1.284,0,0,0,.528-1.765c-1.968-5.992-3.88-12-5.811-18.007a4.477,4.477,0,0,0-.437-1.218c-1.141-1.619-2.337-3.2-3.5-4.8-1.6-2.2-2.906-4.718-4.879-6.5-1.528-1.382-1.291-2.16-.3-3.386.341-.423.686-.844,1.048-1.249.92-1.031,1.771-1.058,2.694.068,2.484,3.031,5.015,6.023,7.533,9.027a15.252,15.252,0,0,1,2.882,5.924c1.774,6.32,3.9,12.542,5.923,18.9l3.377-1.142c4.823-1.633,9.775-1.429,14.712-.879a33.823,33.823,0,0,1,14.779,4.8c3.9,2.5,5.814,5.673,2.47,10.352a4,4,0,0,0-.577,1.505c-2.381,11.676-4.8,23.344-7.09,35.037a85.964,85.964,0,0,0-1.845,19.294c.045,1.423-.114,2.214-1.867,1.772-.655-.165-1.458.356-2.209.45-1.772.221-7.422-.329-8.238-1.035-.8-.69-.653-2.27-2.194-2.419-.17-.016-.352-.749-.39-1.161-.427-4.682.675-9.415-.618-14.09-.422-1.525-.156-3.227-.359-4.829-.182-1.443-.576-2.86-.938-4.585,2.8,1.25,1.694,4.1,2.875,5.727l2.611-1.092v-7.924c0-2.652-1.221-3.879-3.911-4.06-1.143-.077-1.9.235-2.2,1.408a20.407,20.407,0,0,1-.8,2.648c-.128.315-.6.49-.918.728-.2-.379-.633-.8-.573-1.131a19.7,19.7,0,0,1,.879-3.13,2.75,2.75,0,0,1,3.4-2.067c1.351.285,2.679.681,4.034,1.033l.684-1.6.46.006.734,3.528a1.1,1.1,0,0,0,.429-.873c.18-2.494.313-4.994.583-7.479.048-.44.67-.817,1.027-1.224.209.481.612.971.592,1.443-.076,1.846-.348,3.683-.436,5.529-.3,6.394-.559,12.791-.834,19.187l.49.033,2.709-28.251c-1.351.3-2.617.558-3.873.86a1.271,1.271,0,0,0-.657.417c-.358.455-.656.958-.978,1.442l-1.073-1.437c-.915,0-1.894.007-2.872,0-2.465-.022-4.923-.127-7.091-1.5-1.244-.79-1.213-1.327-.108-2.311a8.881,8.881,0,0,0,1.327-1.635c1.083-1.574,2.183-2.033,3.877-1.177a10.272,10.272,0,0,1,3.828,2.671c1.75,2.465,3.836,2.176,6.151,1.441,1.242-.394,2.459-.87,3.682-1.322a13.557,13.557,0,0,1,1.973-.751c1.128-.222,1.65.427,1.3,1.527-.148.464-.41.89-.592,1.344-2.243,5.576-2.9,11.5-3.888,17.37a2.853,2.853,0,0,0,.694-.9c1.7-3.067,2.117-6.479,2.732-9.854a64.972,64.972,0,0,1,1.709-6.788c.1-.354.893-.505,1.366-.75a8.928,8.928,0,0,1-.066,1.488c-.448,2.16-1.356,4.332-1.258,6.46a13.24,13.24,0,0,1-.35,3.537c-.755,3.524-1.416,7.069-2.114,10.6l.589.107c.207-1.089.413-2.177.64-3.378l1.255-.106,6.074-27.915c-1.571.454-2.951.773-4.266,1.266a5.076,5.076,0,0,0-1.865,1.267,1.65,1.65,0,0,1-2.593.217l1.25-.939-.191-.409c-.583.169-1.164.343-1.748.505-1.376.382-2.758,1.1-4.13,1.078a51.615,51.615,0,0,1-18.081-3.621c-.946-.367-1.905-.7-3.129-1.15C613.527,325.473,613.625,326.1,613.774,326.709Zm19.5-5.17c-.9-.624-1.574-.341-2.164.563a18.414,18.414,0,0,1-2.1,2.687c-.286.3-.92.259-1.394.374.049-.48-.054-1.057.176-1.422.637-1.006,1.413-1.924,2.135-2.876,1.154-1.524,2.369-1.945,3.944-.851a72.079,72.079,0,0,1,6.725,5.379,2.37,2.37,0,0,0,2.59.761c1.231-.424,2.474-.812,3.7-1.238,1.908-.659,2.6-2.449,3.257-4.028a3.416,3.416,0,0,0-.739-2.928,14.7,14.7,0,0,0-4.213-3.269,40.233,40.233,0,0,0-23.542-3.4,35.562,35.562,0,0,0-4.7,1.336c-.905.258-1.212.746-.875,1.692,1.15,3.227,2.22,6.483,3.406,9.7a2.192,2.192,0,0,0,1.264,1.261c3.761.839,7.539,1.612,11.336,2.265.622.107,1.358-.495,2.053-.735a4.872,4.872,0,0,1,1.346-.341c1.17-.048,2.344-.016,3.516-.016l.219-.685C637.233,324.353,635.266,322.927,633.27,321.539Zm-25.021-2.648c-.087.823,1.37,1.81,2.368,3a8.255,8.255,0,0,1,.588-1.456c.168-.232.5-.506.73-.487s.66.4.637.58c-.284,2.177,1.46,2.368,2.813,2.933.579.242,1.181.429,2.229.806L614.143,314c-1.373.1-1.757.611-1.1,1.771.67,1.183,1.351,2.363,1.928,3.591.162.344-.028.853-.056,1.286-.421-.126-1.041-.119-1.23-.4-1-1.483-1.884-3.038-3.152-5.134C609.6,316.55,608.381,317.662,608.249,318.891Zm4.83-8.24c-1.6-4.611-3.025-9.284-4.583-13.912a1.7,1.7,0,0,0-1.168-.869c-.215-.038-.876.746-.8,1,1.6,5.329,3.276,10.635,4.921,15.9C613.207,312.536,613.559,312.033,613.079,310.65ZM603.1,286.482a1.636,1.636,0,0,0-.165-1.4c-1.481-1.8-3.028-3.557-4.6-5.282-.527-.578-1.178-1.38-2.05-.581s-.106,1.376.4,2.049c2.173,2.914,4.265,5.888,6.429,8.809.308.416,1.08,1.028,1.236.927a12.99,12.99,0,0,0,1.875-1.731l-1.1-.719C602.541,288.648,602.345,288.318,603.1,286.482Zm37.663,73.64-.374-.115c-.479,1.779-1.069,3.537-1.41,5.342-.5,2.666-.485,5.485-1.356,8.008-.563,1.629-.726,2.677.3,4.06.451.606.343,1.626.489,2.458l.2-.011Q639.7,369.993,640.767,360.123Zm-15-25.991c-2.726-1.9-3.27-1.745-4.892,1.325,2.2,1.395,4.621,1.024,6.986,1.036l.216-.416C627.314,335.424,626.593,334.706,625.771,334.132Zm1.592,29.159a6.9,6.9,0,0,0,.348,3.031,12.506,12.506,0,0,0,1.608,2.491v-7.931A2.468,2.468,0,0,0,627.363,363.291Zm10.48-6.048a12.565,12.565,0,0,0-1.923,8C637.786,362.856,637.389,359.953,637.843,357.243Zm1.389-21.427-1.708.318c-.232,2.1-.446,4.037-.66,5.973l.33.058C637.845,340.139,638.495,338.113,639.232,335.816Zm-33.139-41.139c1.937-.659,1.99-.938.655-3.48C605.141,292,605.018,292.646,606.092,294.677Zm29.147,81.858-.577.059.437,3.431.545-.055C636.67,378.684,635.471,377.668,635.239,376.535Zm-5.492-2.992-.312,0v5.594l.654-.025Q629.918,376.33,629.747,373.543Z" transform="translate(-594.115 -276.742)" fill="#4a3e32"/>
        <g id="グループ_25" data-name="グループ 25" clip-path="url(#clip-path-3)">
          <path id="パス_398" data-name="パス 398" d="M616.484,325.749a51.615,51.615,0,0,0,18.081,3.621c1.372.018,2.754-.7,4.13-1.078.584-.162,1.166-.337,1.748-.505l.191.409-1.25.939a1.65,1.65,0,0,0,2.593-.217,5.076,5.076,0,0,1,1.865-1.267c1.315-.493,2.695-.812,4.266-1.266L642.036,354.3l-1.255.106c-.227,1.2-.434,2.289-.64,3.378l-.589-.107c.7-3.536,1.359-7.081,2.114-10.6a13.24,13.24,0,0,0,.35-3.537c-.1-2.129.81-4.3,1.258-6.46a8.928,8.928,0,0,0,.066-1.488c-.473.245-1.261.4-1.366.75a64.972,64.972,0,0,0-1.709,6.788c-.615,3.375-1.032,6.787-2.732,9.854a2.853,2.853,0,0,1-.694.9c.985-5.869,1.645-11.794,3.888-17.37.183-.454.444-.881.592-1.344.351-1.1-.171-1.748-1.3-1.527a13.557,13.557,0,0,0-1.973.751c-1.223.452-2.44.928-3.682,1.322-2.315.736-4.4,1.024-6.151-1.441a10.272,10.272,0,0,0-3.828-2.671c-1.695-.855-2.794-.4-3.877,1.177a8.881,8.881,0,0,1-1.327,1.635c-1.105.984-1.137,1.521.108,2.311,2.168,1.377,4.626,1.482,7.091,1.5.979.008,1.957,0,2.872,0l1.073,1.437c.322-.484.619-.987.978-1.442a1.271,1.271,0,0,1,.657-.417c1.257-.3,2.523-.564,3.873-.86l-2.709,28.251-.49-.033c.275-6.4.531-12.793.834-19.187.087-1.846.36-3.683.436-5.529.02-.472-.383-.962-.592-1.443-.357.406-.98.784-1.027,1.224-.27,2.485-.4,4.985-.583,7.479a1.1,1.1,0,0,1-.429.873l-.734-3.528-.46-.006-.684,1.6c-1.355-.352-2.683-.748-4.034-1.033a2.75,2.75,0,0,0-3.4,2.067,19.7,19.7,0,0,0-.879,3.13c-.06.332.368.752.573,1.131.316-.239.79-.413.918-.728a20.407,20.407,0,0,0,.8-2.648c.3-1.173,1.06-1.485,2.2-1.408,2.69.181,3.91,1.408,3.911,4.06v7.924l-2.611,1.092c-1.181-1.627-.078-4.477-2.875-5.727.363,1.726.756,3.142.938,4.585.2,1.6-.063,3.3.359,4.829,1.293,4.675.191,9.408.618,14.09.038.413.22,1.145.39,1.161,1.541.149,1.4,1.728,2.194,2.419.816.706,6.466,1.256,8.238,1.035.751-.093,1.554-.615,2.209-.45,1.752.442,1.912-.349,1.867-1.772a85.964,85.964,0,0,1,1.845-19.294c2.295-11.692,4.709-23.361,7.09-35.037a4,4,0,0,1,.577-1.505c3.344-4.68,1.434-7.855-2.47-10.352a33.823,33.823,0,0,0-14.779-4.8c-4.937-.55-9.889-.754-14.712.879l-3.377,1.142c-2.021-6.363-4.149-12.584-5.923-18.9a15.252,15.252,0,0,0-2.882-5.924c-2.517-3-5.048-6-7.533-9.027-.924-1.127-1.774-1.1-2.694-.068-.362.405-.706.827-1.048,1.249-.992,1.226-1.229,2,.3,3.386,1.972,1.785,3.278,4.3,4.879,6.5,1.166,1.6,2.362,3.182,3.5,4.8a4.477,4.477,0,0,1,.437,1.218c1.931,6,3.843,12.015,5.811,18.007a1.284,1.284,0,0,1-.528,1.765c-4.6,3.108-3.777,6.3.9,8.806a3.662,3.662,0,0,1,1.66,2.136c2.8,12.253,5.7,24.489,8.174,36.811,1.268,6.327,1.77,12.811,2.524,19.235a21.48,21.48,0,0,1-.109,4.525c-.051.536,1.324,1.537,1.891.782,3.186,1.6,3.892.038,1.113-1.453a2.048,2.048,0,0,1-.978-1.418c-.4-12.42-2.984-24.5-5.687-36.557-1.547-6.9-3.346-13.737-5.025-20.6-.15-.612-.247-1.236-.419-2.11C614.579,325.048,615.539,325.382,616.484,325.749Z" transform="translate(-594.115 -276.742)" fill="#4a3e32"/>
        </g>
      </g>
      <path id="パス_400" data-name="パス 400" d="M656.468,360.354a4.162,4.162,0,0,0-6.686-1.973c-.413.343-.961.537-1.337.909-.211.209-.2.645-.288.979.334.087.715.32.991.231a3.067,3.067,0,0,0,1.544-.845c1.04-1.477,2.173-1.034,3.408-.393C654.871,359.661,655.677,359.992,656.468,360.354Z" transform="translate(-622.171 -318.606)" fill="#4a3e32"/>
    </g>
    <g id="グループ_33" data-name="グループ 33" transform="translate(603.315 377.344)">
      <g id="グループ_29" data-name="グループ 29" transform="translate(27.662 53.33)">
        <g id="グループ_28" data-name="グループ 28">
          <path id="パス_401" data-name="パス 401" d="M673.784,602.509c.482.185.967.362,1.446.554,5.067,2.033,10.011,4.494,15.231,6,6.995,2.015,14.21,1.521,21.252-.187a85.372,85.372,0,0,0,20.451-7.459c1.742-.936,3.32-2.172,5.033-3.165a4.864,4.864,0,0,1,1.755-.248c-.248.54-.359,1.236-.767,1.6-3.617,3.2-7.927,5.185-12.389,6.862-6.651,2.5-13.376,4.779-20.506,5.439-7.916.732-15.615-.065-22.853-3.663-2.313-1.15-4.66-2.235-6.939-3.449a13.355,13.355,0,0,1-2.088-1.707Z" transform="translate(-673.41 -598)" fill="#4a3e32"/>
        </g>
      </g>
      <g id="グループ_32" data-name="グループ 32" transform="translate(0 0)">
        <g id="グループ_31" data-name="グループ 31">
          <g id="グループ_30" data-name="グループ 30" transform="translate(16.755 10.771)">
            <path id="パス_402" data-name="パス 402" d="M660.977,515.473l4.407.054c-1.52,1.576-2.774,2.971-4.133,4.254-1.009.952-1.157,1.761.078,2.686,2.51-2.256,4.471-5.221,7.494-6.885l.481.493a6.069,6.069,0,0,1-.588.96c-1.8,2.019-3.627,4.02-5.443,6.027-.161.177-.284.477-.475.527-2.619.68-1.565,2.468-.979,3.814a18,18,0,0,0,2.723,4.423c1.291,1.521,1.495-.166,2.047-.86a3.538,3.538,0,0,0-.478-.424c-2.4-1.367-2.972-2.475-2.252-5.034,1.142-4.063,3.883-6.817,7.532-8.758a1.711,1.711,0,0,1,.511-.167,1.985,1.985,0,0,1,.494.083c.236,1.125.377,2.126-1.16,2.592a2.724,2.724,0,0,0-1.388,1.066c-.57.9-.883,1.816-2.3,1.812-.822,0-2.468,4.241-2.286,5.318.366,2.165,2.213,1.764,3.986,2.428-1.36-2.334-.259-3.72,1.079-5.014,1.6-1.547,3.154-3.148,4.85-4.583,1.973-1.669,2.918-1.223,3.628,1.22.338,1.164,1.307,2.131,1.757,3.278a26.228,26.228,0,0,1,1.233,4.4c.06.3-.571.73-.884,1.1-.323-.3-.957-.647-.921-.9.477-3.3-2.941-4.864-3.2-8.36-2.415,2.264-4.5,4.059-6.382,6.04a2.03,2.03,0,0,0,1.031,3.442c2.151.553,4.343.946,6.505,1.459,1.913.453,3.793,1.063,5.719,1.438a35.513,35.513,0,0,0,4.25.292c-3.111-3.4-3.875-7-2.033-10.6.807-1.575,2.79-2.733,4.478-3.63a19.67,19.67,0,0,1,8.622-2.083c.12,0,.28-.06.353,0,2.314,1.776,4.642,3.538,6.885,5.4.175.146-.247,1.01-.424,1.664a13.425,13.425,0,0,1,1.4,1.887,1.442,1.442,0,0,1-.27,1.231c-.11.145-.811.031-1.091-.175-2.308-1.691-4.6-3.405-6.847-5.176a4.818,4.818,0,0,1-1.145-1.567,10.922,10.922,0,0,1-.58-1.708l-.953.483c.5,2.067-.164,2.271-1.767,1.692-2.307-.833-4.418.1-6.25,1.423-1.354.974-.824,3.328.661,4.183a19.3,19.3,0,0,1,2.4,1.953l.519-1.463,4.47,2.512.148-.29-3.182-3.862.516-.534a8.029,8.029,0,0,1,1.266.875,13.954,13.954,0,0,0,6.823,3.844,7.108,7.108,0,0,1,1.549.812c.3.16.632.5.889.451,3.4-.664,7.025.17,10.276-1.613,1.279-.7,2.727-1.1,4.011-1.893l-3.264-.04,8.382-4.585c-3.42-1.825-6.4-3.33-9.872-3.024-.372.033-.69.669-1.032,1.026l.159.587c1.514.018,3.03-.008,4.539.08a5.491,5.491,0,0,1,1.488.54c-.462.364-.908,1.011-1.39,1.039-1.786.105-3.584.007-5.558-.017-.028.186-.107.732-.19,1.3a2.293,2.293,0,0,1-1.162-3.6c1.695-2.484,3.763-4.572,7.127-4.509a2.506,2.506,0,0,0,.716-.011c1.21-.349,2.533-.991,3.507.245a22.918,22.918,0,0,1,3.18,4.895c.29.668-.446,2.062-1.094,2.786a18.118,18.118,0,0,1-3.135,2.318c2.5,2.149,2.5,2.149.6,3.824,1.486-.7,2.95-1.462,4.471-2.078a6.221,6.221,0,0,1,1.875-.149c-.3.576-.464,1.373-.941,1.682a13.88,13.88,0,0,1-3.695,1.84c-8.218,2.3-16.4,4.77-24.729,6.594-3.678.806-7.661.342-11.5.251-5.281-.124-10.6.006-15.738-1.614a1.1,1.1,0,0,1-.174-.046c-5.9-3.06-12.495-4.7-17.9-8.786-2.91-2.2-3.226-3.446-1.635-7.1a13.737,13.737,0,0,1,5.094-5.722,38.826,38.826,0,0,1,14.5-5.735c.42-.089.927.233,1.393.365-.327.43-.568,1.1-.993,1.249-1.923.684-3.916,1.168-5.848,1.828-1.688.578-3.328,1.294-4.99,1.95Q660.9,515.187,660.977,515.473Zm25.689,11.8c.579,4.583,2.906,5.637,9,4.228A11.188,11.188,0,0,1,686.667,527.274Zm-32.7-7.422.567.721,4.939-4.311-.426-.518Zm6.505,9.118c-.315-1.652-.59-3.088-.864-4.523C659.169,526.049,657.852,527.809,660.468,528.971Zm-2.785-8.552.245.25,4.017-3.745-.5-.522Z" transform="translate(-650.726 -509.493)" fill="#4a3e32"/>
          </g>
          <path id="パス_403" data-name="パス 403" d="M636.151,506.473c6.317-9.189,16.023-13.2,26.084-15.911,16.977-4.582,34.109-4.992,50.979.994a39.785,39.785,0,0,1,13.437,7.937,4.137,4.137,0,0,0,2.159.723c1.9.241,3.83.272,5.713.593a2.475,2.475,0,0,1,1.5,1.352c.807,1.873,1.456,3.816,2.123,5.746a2.984,2.984,0,0,1,.165,1.414c-.058.339-.48.905-.652.875a1.462,1.462,0,0,1-1.013-.712c-.694-1.916-1.2-3.9-1.97-5.785a2.943,2.943,0,0,0-1.684-1.411,31.575,31.575,0,0,0-4.135-.753c.648,1.081.985,1.68,1.356,2.257a9.921,9.921,0,0,1-1.977,13.462c-3.642,3.112-8.043,4.776-12.448,6.4a101.083,101.083,0,0,1-28.13,6.06c-8.945.615-17.919.991-26.729-1.361a9.476,9.476,0,0,1-2.358-.874A5.522,5.522,0,0,1,657.4,526.1a5.455,5.455,0,0,1,1.735-.232c2.472.493,4.9,1.313,7.389,1.607a107.908,107.908,0,0,0,27.537-.406,94.6,94.6,0,0,0,26.31-7.4,28.711,28.711,0,0,0,7.582-5.054c2.751-2.566,2.8-6.37.728-9.571-3.266-5.053-8.091-8.179-13.442-10.546a61.09,61.09,0,0,0-24-5.142c-8.384-.134-16.728.137-24.938,2a66.255,66.255,0,0,0-23.259,10.358c-8.387,5.817-5.393,13.8-.395,18.515,4.173,3.934,9.352,6.053,14.656,7.917,2.554.9,5.114,1.775,7.663,2.686a1.845,1.845,0,0,1,1.076,1.063,3.721,3.721,0,0,1-1.26.139c-7.95-2.017-15.856-4.169-22.4-9.486-5.142-4.177-7.378-9.5-6.183-16.12Z" transform="translate(-626.264 -487.093)" fill="#4a3e32"/>
          <path id="パス_404" data-name="パス 404" d="M710.813,513.425a6.016,6.016,0,0,1-.59-1.7c-.125-1.594-.717-1.992-2.22-1.527a1.564,1.564,0,0,1-1.4-.59,2.624,2.624,0,0,1,1.749-3.739c2.9-.809,5.862-1.708,8.825-.034.422.238,1.063.065,1.593.144a2.128,2.128,0,0,1,2.022,1.839c.345,1.286,1.571,2.317,2.291,3.53a7.964,7.964,0,0,1,.569,1.953,7.137,7.137,0,0,1-1.822-.663c-.572-.4-.905-1.143-1.471-1.563a6.535,6.535,0,0,0-1.756-.713c-.216-.076-.519.008-.683-.113-1.374-1.021-2.813-1.518-4.213-.183C712.717,511.009,711.909,512.136,710.813,513.425Z" transform="translate(-662.848 -496.334)" fill="#4a3e32"/>
          <path id="パス_405" data-name="パス 405" d="M625.813,525.938l-8.066,1.5c1.822,4.051,2.925,8.034,7.373,9.553.35.119.56.645.835.982-.342.27-.741.817-1.014.76-.966-.2-2.2-.336-2.772-.989a74.7,74.7,0,0,1-4.7-6.306,12.022,12.022,0,0,1-.83-1.991c-1.257-2.789-1.176-2.967,1.909-3.72a40.782,40.782,0,0,1,4.213-.931c1.149-.154,2.484-.4,3,1.2Z" transform="translate(-615.882 -506.607)" fill="#4a3e32"/>
          <path id="パス_406" data-name="パス 406" d="M754.282,514.225l-4.237,2.2c-.673-.565-.8-1.1.232-1.743a12.847,12.847,0,0,1,4.375-1.935c2.649-.459,5.487-.782,7.39,1.852.393.544.675,1.777.376,2.092-.719.756-1.278,2.373-2.969,1.2-1.07-.742-2.383-1.125-3.522-1.781a8.435,8.435,0,0,1-1.451-1.364Z" transform="translate(-685.261 -500.252)" fill="#4a3e32"/>
          <path id="パス_407" data-name="パス 407" d="M644.126,564.58a43.78,43.78,0,0,0,2.456,4.081c2.6,3.457,5.337,6.817,7.958,10.263a5.158,5.158,0,0,1,.49,1.8c-.575-.169-1.356-.155-1.692-.535a60.649,60.649,0,0,1-9.366-12.989,9.68,9.68,0,0,1-.5-2.439Z" transform="translate(-630.204 -527.32)" fill="#4a3e32"/>
          <path id="パス_408" data-name="パス 408" d="M819.928,556.438c-2.033,4.632-3.925,9-5.879,13.34a6.05,6.05,0,0,1-1.39,1.845c-.261.245-.83.164-1.259.231-.021-.43-.2-.937-.039-1.278,1.936-4.049,3.914-8.077,5.9-12.1C817.775,557.441,818.239,556.28,819.928,556.438Z" transform="translate(-717.329 -523.085)" fill="#4a3e32"/>
          <path id="パス_409" data-name="パス 409" d="M744.505,505.818c-1.381-.017-2.766.018-4.142-.081-.437-.032-.849-.421-1.272-.646.371-.338.707-.913,1.118-.972,1.836-.264,3.691-.416,5.544-.538a11.961,11.961,0,0,1,3.052.068c.62.122,1.147.716,1.716,1.1-.626.429-1.214,1.138-1.885,1.228a28.836,28.836,0,0,1-4.133.008C744.5,505.929,744.5,505.873,744.505,505.818Z" transform="translate(-679.846 -495.62)" fill="#4a3e32"/>
          <path id="パス_410" data-name="パス 410" d="M794.073,515.971c.792.169,1.208.132,1.421.322,2.621,2.339,5.232,4.69,7.783,7.1.27.256.143.932.2,1.414-.474-.089-1.11-.013-1.4-.293-2.478-2.424-4.9-4.91-7.321-7.389A7.907,7.907,0,0,1,794.073,515.971Z" transform="translate(-708.389 -502.085)" fill="#4a3e32"/>
          <path id="パス_411" data-name="パス 411" d="M773.184,509.744c1.9.522,3.64.945,5.33,1.5.39.128.628.716.936,1.094-.447.123-.929.42-1.335.338-1.8-.364-3.588-.809-5.359-1.3-.291-.081-.478-.543-.712-.829Z" transform="translate(-696.953 -498.852)" fill="#4a3e32"/>
        </g>
      </g>
    </g>
  </g>
</svg>
