<svg xmlns="http://www.w3.org/2000/svg" width="103.416" height="124.991" viewBox="0 0 103.416 124.991">
  <g id="menu-food-illustration3" transform="matrix(0.809, 0.588, -0.588, 0.809, -425.016, -546.229)" opacity="0.8">
    <path id="パス_463" data-name="パス 463" d="M747.776,276.283c-3.6,2.23-4.113,1.327-6.575-1.785-5.268-6.656-3.807-15.983-3.771-23.383.059-12.291,1.1-24.571,1.513-36.864.189-5.61-.084-11.243-.275-16.859a2.881,2.881,0,0,0-1.337-1.864,22.805,22.805,0,0,1-8.38-8.456c-1.885-3.369-1.717-7.1-1.965-10.766a58.96,58.96,0,0,1,1.268-9.575c.507-1.915.93-3.857,1.47-5.761,1.04-3.67,2.045-7.358,3.263-10.956a8.088,8.088,0,0,1,2.156-2.823,1.4,1.4,0,0,1,1.454.023c.284.224.3,1,.275,1.517-.023.5-.39.99-.365,1.469.4,7.531.777,15.064,1.308,22.583a17.082,17.082,0,0,0,1.294,3.991l.558-.094c.448-3.167,1-6.322,1.323-9.5.546-5.373.945-10.765,1.414-16.148.039-.439.007-1.04.244-1.273a12.041,12.041,0,0,1,1.845-1.282,6.883,6.883,0,0,1,.543,1.854c0,6.423,1.856,12.432,3,18.6l.6-.011q.845-5.619,1.695-11.239a45.931,45.931,0,0,1,.8-4.583,12.788,12.788,0,0,1,1.247-2.494c.86.744,2.191,1.307,2.5,2.266,1.382,4.323,2.563,8.733,3.647,13.162,1.18,4.821,1.988,9.769,1.047,14.726-1.061,5.594-4.066,10.1-7.548,14.2-.331.391-1.168.263-1.77.376a6.68,6.68,0,0,1,.42-2.07c1.66-2.779,3.419-5.485,5.139-8.221,2.51-3.992,2.261-8.57,1.654-12.911-.807-5.766-2.293-11.418-3.524-17.109a2.864,2.864,0,0,0-1.225-1.683c-.407,3.3-.808,6.606-1.222,9.907-.589,4.694-1.161,9.39-1.825,14.072-.069.49-.7.884-1.066,1.323-.354-.46-.925-.868-1.029-1.389-1.172-5.826-2.272-11.67-3.7-17.5q-.86,7.415-1.715,14.829c-.151,1.32-.2,2.658-.406,3.967a9.762,9.762,0,0,1-.693,1.881,7.365,7.365,0,0,1-1.707-.91c-2.986-2.765-4.224-6.49-4.318-10.624-.131-5.763-.033-11.533-.033-17.3l-.644-.152a27.385,27.385,0,0,0-1.145,3.239c-.966,4.315-1.8,8.667-2.8,12.972-.271,1.168-1.919,13.328.083,17.672a17.078,17.078,0,0,0,7.7,7.9c1.722.938,3.106,1.64,2.365,4.435-.453,1.708.4,3.782.369,5.687-.118,7.851-.367,15.7-.533,23.55-.245,11.624-.593,24.733-.616,36.358a21.363,21.363,0,0,0,3.042,11.341c.876,1.424,1.768,1.379,2.878.625a5.035,5.035,0,0,0,2.325-4.624c.224-16.393-.068-34.248-1.382-50.582-.511-6.346-1.309-12.662-1.936-19a15.589,15.589,0,0,1,.135-2.447l.638-.1a8.705,8.705,0,0,1,.615,1.807c1.178,10.51,2.912,21,3.336,31.545.629,15.682,1.469,25.92.411,42.664C749.835,275.073,747.623,278.276,747.776,276.283Z" transform="translate(0)" fill="#4a3e32"/>
  </g>
</svg>
