<svg xmlns="http://www.w3.org/2000/svg" width="117.79" height="109.246" viewBox="0 0 117.79 109.246">
  <g id="menu-food-illustration1" transform="translate(420.141 797.752) rotate(-130)" opacity="0.8">
    <path id="パス_464" data-name="パス 464" d="M802.765,196.289c1.689-.569,1.844.423,1.842,1.793-.013,9.5-.068,19.006.035,28.508.178,16.224.468,32.447.7,48.67.037,2.669,0,5.34.25,8.083,2.237-2.257,4.4-4.451,4.861-7.908,1.4-10.482.907-21.012.377-31.507-.772-15.316-1.883-30.612-2.845-45.918-.075-1.209-.177-2.48,1.7-2.111.289,3.821.6,7.654.865,11.491.836,12.018,1.857,24.025,2.419,36.059.415,8.894.225,17.823.3,26.736,0,.363-.138.87.027,1.067,1.61,1.912.456,3.661-.459,5.118a90.853,90.853,0,0,1-6.441,9.087,2.986,2.986,0,0,1-3.147.438c-.866-.733-.161-11.474-.176-15.144-.061-16.147-.456-32.293-.63-48.439-.086-7.963.036-15.929.084-23.893A19.458,19.458,0,0,1,802.765,196.289Z" transform="translate(-3.808 -10.756)" fill="#4a3e32"/>
    <path id="パス_465" data-name="パス 465" d="M796.346,182.3c-2.722,1.605-6.564.8-8.92-1.39-2.86-2.661-4.122-6.267-4.784-10.105-2.455-14.227,6.985-26.607,15.368-30.486,8.417-3.9,17.215.367,20.009,9.938,2.627,9,.437,17.009-4.695,24.2a10.105,10.105,0,0,1-3.408,2.49c-.34.193-1.006-.307-1.523-.488.268-.51.422-1.218.823-1.5,7.632-5.388,9.967-19.391,5.385-27.4-3.144-5.491-9.3-7.828-14.995-5.438-8.6,3.612-17.77,15.958-14.636,29.83,1.21,5.358,3.523,9.373,9.55,9.712A8.683,8.683,0,0,1,796.346,182.3Z" fill="#4a3e32"/>
    <path id="パス_466" data-name="パス 466" d="M795,167.782c-.849,5.757.205,8.077,4.711,11.106.422.284.559,1.08.828,1.639-.53.085-1.113.371-1.583.223-3.218-1.011-6.5-6.445-6.138-10.075C792.95,169.332,793.325,168.141,795,167.782Z" transform="translate(-1.99 -5.458)" fill="#4a3e32"/>
  </g>
</svg>
