<svg xmlns="http://www.w3.org/2000/svg" width="103.319" height="129.595" viewBox="0 0 103.319 129.595">
  <g id="menu-food-illustration2" transform="translate(-767.071 382.438) rotate(-34)" opacity="0.8">
    <path id="パス_467" data-name="パス 467" d="M866.31,269.664c-.08-3.56,1.11-6.916.232-10.717-.873-3.782-.245-7.92-.22-11.9.093-14.214.158-35.238.334-49.451.133-10.716.548-21.429.6-32.144.067-12.765.212-25.544-1.579-38.24-.067-.473.353-1.014.546-1.522.342.448.927.865.988,1.348.669,5.3,1.735,10.615,1.78,15.932.154,18.263-.044,36.528-.134,54.793-.059,12.223-.147,31.255-.255,43.478-.048,5.354-.192,10.707-.273,16.06-.067,4.379-.065,8.758-.181,13.136-.027,1.024.085,2.357-1.5,2.519a2.412,2.412,0,0,1-2.846-2.095c-.97-4.982-2.7-9.967-3.5-14.977-2.344-14.583-2.442-36.09-1.68-50.78.42-8.088,1.485-16.143,2.358-24.2.072-.666.9-1.25,1.373-1.872a6.644,6.644,0,0,1,.535,2.164c-1.793,16.4-3.242,39.654-2.069,56.146.7,9.906,2.284,19.75,3.5,29.618.114.927,1.19,1.829,1.415,2.743Z" transform="translate(-2.685 -0.904)" fill="#4a3e32"/>
    <path id="パス_468" data-name="パス 468" d="M862.264,124.2l-2.09-1.808a18.906,18.906,0,0,0-1.848,2.057c-6.041,9-10.3,18.74-11.774,29.55a44.829,44.829,0,0,0-.446,8.18c.228,4.772,2.883,8.317,6.423,11.288,1.472,1.235,2.994,2.42,4.37,3.756.44.427.48,1.264.7,1.913-.666-.075-1.522.092-1.971-.26-9.923-7.79-13.609-11.633-11.128-26.565a69.739,69.739,0,0,1,10.148-25.883,26.562,26.562,0,0,1,3.366-4.4c.666-.681,2.1-1.418,2.74-1.133.965.427,1.543,1.731,2.285,2.661Z" transform="translate(0)" fill="#4a3e32"/>
  </g>
</svg>
