<svg xmlns="http://www.w3.org/2000/svg" xmlns:xlink="http://www.w3.org/1999/xlink" width="180" height="138.213" viewBox="0 0 180 138.213">
  <defs>
    <clipPath id="clip-path">
      <path id="パス_358" data-name="パス 358" d="M1090.277,804.345c-6.064.452-11.088-3.682-11.538-9.439a2.666,2.666,0,0,1,1.613-2.9c3.808-1.984,7.237-1.233,10.54,1.183,3.264,2.388,3.567,5.724,3.166,9.344C1093.761,805.222,1091.624,803.927,1090.277,804.345ZM1081.1,794.2l-.4.768a9.985,9.985,0,0,0,1.589,1.538c2.371,1.455,5.511,1.689,7.037,4.528.136.252.979.124,1.493.173-.073-.52.049-1.26-.25-1.523a54.91,54.91,0,0,0-5.918-4.8C1083.719,794.274,1082.3,794.407,1081.1,794.2Z" transform="translate(-1078.725 -790.871)" fill="#4a3e32"/>
    </clipPath>
    <clipPath id="clip-path-2">
      <path id="パス_372" data-name="パス 372" d="M1103.237,731.842c.643-1.759,1.18-3.567,1.961-5.262.671-1.458,1.747-3.046,3.55-2.49a7.665,7.665,0,0,1,4.079,2.74c1.943,3.109-1.231,8.974-4.865,9.515C1104.889,736.8,1103.263,735.188,1103.237,731.842Zm2.335-.146c.239.571.455,2.015.989,2.143a3.076,3.076,0,0,0,2.583-1.014,10.317,10.317,0,0,0,1.644-3.746c.362-1.455-.709-2-1.96-2.421-1.481-.5-1.827.484-2.184,1.438C1106.259,729.122,1106.01,730.2,1105.572,731.7Z" transform="translate(-1103.237 -723.976)" fill="#4a3e32"/>
    </clipPath>
  </defs>
  <g id="menu-drink-decoration" transform="translate(-963.585 -645.348)" opacity="0.8">
    <g id="グループ_10" data-name="グループ 10" transform="translate(963.585 738.924)">
      <path id="パス_351" data-name="パス 351" d="M976.864,795.327c5.09.093,7.545,3.257,6.727,6.972-1.16,5.274-5.414,9.306-10.524,9.67-1.29.092-2.64-.574-3.953-.928-.609-.165-1.179-.477-1.792-.62-2.988-.7-4.763-4.048-3.094-6.546C967.526,798.94,972.108,795.84,976.864,795.327Zm4.285,3.947a9.288,9.288,0,0,0-2.092-1.507,1.763,1.763,0,0,0-1.538.64c-2.273,3.445-6.178,4.031-9.587,5.32-1.114.421-1.97.684-2.2,1.769-.282,1.333.075,2.51,1.068,2.873a17.1,17.1,0,0,1,2.729-2.631C973.183,803.6,976.921,801.609,981.149,799.274Zm-9.673,9.557q.1.5.192,1l3.915-.8q-.09-.462-.18-.924Z" transform="translate(-963.585 -778.791)" fill="#4a3e32"/>
      <path id="パス_352" data-name="パス 352" d="M989.3,821.91q3.678.879,7.356,1.757a21.588,21.588,0,0,1,2.7.639c1.37.519,2.409.492,3.254-.944.254-.431,1.13-.5,1.72-.731.02.7.333,1.6.011,2.058-1.579,2.234-3.132,4.619-6.488,4.2-3.569-.449-7.22-.523-10.7-1.346-2.863-.678-3.3-2.84-1.537-5.275,1.723-2.378,3.479-4.639,6.389-5.855,2.522-1.055,5.3-1.036,7.393.762a13.8,13.8,0,0,1,2.073,2.143,11.778,11.778,0,0,1,1.023,2.11c-.834.271-1.718.871-2.494.754-2.524-.38-4.994-1.115-7.515-1.519a12.546,12.546,0,0,0-3.172.293Q989.309,821.431,989.3,821.91Z" transform="translate(-969.256 -784.296)" fill="#4a3e32"/>
      <path id="パス_353" data-name="パス 353" d="M1032,794.3c3.775.145,6.647,1.633,8.048,5.387.148.4.532.91.888.986,1.845.393,1.465,1.314.493,2.173-3.655,3.225-7.76,5.417-12.8,5.538-2.178.053-3.53-.6-4.394-2.783C1021.694,799.194,1024.989,794.289,1032,794.3Zm-7.153,7.781.439.646,12.542-1.349.225-.574c-.44-.387-.881-1.109-1.32-1.108-3.679.006-7.428-.454-10.935,1.11C1025.376,801,1025.159,801.648,1024.847,802.084Z" transform="translate(-979.743 -778.514)" fill="#4a3e32"/>
      <path id="パス_354" data-name="パス 354" d="M1079.507,819.631c-.021-3.321-.005-3.416,3.3-4.207a66.961,66.961,0,0,1,8.445-1.7c2.506-.266,3.929,1.517,5.011,3.607,1.021,1.971.417,3.6-.9,5.051-2.5,2.752-5.076,5.387-9.271,5.228-4.126-.156-6.4-2.33-6.6-6.488C1079.459,820.626,1079.5,820.128,1079.507,819.631Zm2.085,2.793c3.88-.679,7.433-1.268,10.967-1.951a7.1,7.1,0,0,0,1.83-.967c-4.622-1.741-8.667.053-12.974.847C1081.456,820.839,1081.507,821.434,1081.592,822.424Zm2.718-5.878.094.59,7.195-1.1c-.031-.2-.063-.4-.095-.6Z" transform="translate(-994.9 -783.754)" fill="#4a3e32"/>
      <path id="パス_355" data-name="パス 355" d="M1118.36,801.005a17.837,17.837,0,0,1,3.394.278c1.811.494,3.8.833,4.339,3.2.6,2.641.355,4.839-2.059,6.6a10.223,10.223,0,0,1-14.065-2.022,16.84,16.84,0,0,0-1.514-1.771c-1.438-1.452-1.349-2.588.349-3.85C1110.994,801.817,1114.175,801.02,1118.36,801.005Zm-6.778,5.9c.117,2.07,1.572,3.3,3.178,2.774a51.051,51.051,0,0,0,5.135-2.049,20.221,20.221,0,0,0,2.51-1.63c-2.537-1.145-5.892-.9-7.472.709C1113.8,807.86,1112.885,808.257,1111.582,806.906Z" transform="translate(-1002.458 -780.325)" fill="#4a3e32"/>
      <g id="グループ_9" data-name="グループ 9" transform="translate(84.028 13.284)">
        <path id="パス_356" data-name="パス 356" d="M1090.277,804.345c-6.064.452-11.088-3.682-11.538-9.439a2.666,2.666,0,0,1,1.613-2.9c3.808-1.984,7.237-1.233,10.54,1.183,3.264,2.388,3.567,5.724,3.166,9.344C1093.761,805.222,1091.624,803.927,1090.277,804.345ZM1081.1,794.2l-.4.768a9.985,9.985,0,0,0,1.589,1.538c2.371,1.455,5.511,1.689,7.037,4.528.136.252.979.124,1.493.173-.073-.52.049-1.26-.25-1.523a54.91,54.91,0,0,0-5.918-4.8C1083.719,794.274,1082.3,794.407,1081.1,794.2Z" transform="translate(-1078.725 -790.871)" fill="#4a3e32"/>
        <g id="グループ_8" data-name="グループ 8" clip-path="url(#clip-path)">
          <path id="パス_357" data-name="パス 357" d="M976.864,789.2c-4.756.513-9.338,3.613-12.636,8.548-1.669,2.5.107,5.849,3.094,6.546.612.142,1.183.455,1.792.62,1.312.354,2.663,1.02,3.953.928,5.11-.364,9.364-4.4,10.524-9.67C984.409,792.461,981.953,789.3,976.864,789.2Zm6.768,21.078q.007-.479.012-.958a12.545,12.545,0,0,1,3.172-.293c2.521.4,4.991,1.138,7.515,1.519.776.117,1.66-.482,2.494-.754a11.782,11.782,0,0,0-1.023-2.11,13.808,13.808,0,0,0-2.073-2.143c-2.092-1.8-4.871-1.816-7.393-.762-2.91,1.216-4.666,3.477-6.389,5.855-1.765,2.435-1.326,4.6,1.537,5.275,3.477.822,7.128.9,10.7,1.346,3.356.423,4.909-1.962,6.488-4.2.323-.455.01-1.36-.011-2.058-.59.234-1.466.3-1.72.731-.845,1.436-1.884,1.463-3.254.944a21.606,21.606,0,0,0-2.7-.639Q987.309,811.165,983.632,810.282Zm32.21-21.825c-7.01-.014-10.305,4.891-7.764,11.3.864,2.18,2.216,2.837,4.394,2.783,5.038-.122,9.143-2.313,12.8-5.538.973-.858,1.352-1.779-.493-2.173-.356-.076-.74-.59-.888-.986C1022.489,790.09,1019.616,788.6,1015.842,788.457Zm32.348,20.088c-.009.5-.045,1-.021,1.49.2,4.158,2.478,6.332,6.6,6.488,4.195.158,6.77-2.476,9.271-5.228,1.319-1.451,1.924-3.08.9-5.051-1.082-2.09-2.5-3.873-5.011-3.607a66.961,66.961,0,0,0-8.445,1.7C1048.188,805.128,1048.172,805.224,1048.19,808.545Zm31.3-15.2c-4.185.015-7.366.812-9.557,2.44-1.7,1.263-1.788,2.4-.349,3.85a16.841,16.841,0,0,1,1.514,1.771,10.223,10.223,0,0,0,14.065,2.022c2.413-1.765,2.663-3.962,2.059-6.6-.542-2.369-2.528-2.708-4.339-3.2A17.837,17.837,0,0,0,1079.488,793.348Zm-20.322,6.078c1.347-.418,3.484.876,3.781-1.811.4-3.62.1-6.956-3.166-9.344-3.3-2.416-6.732-3.167-10.54-1.183a2.666,2.666,0,0,0-1.613,2.9C1048.078,795.744,1053.1,799.879,1059.166,799.427Zm-23.9,8.965.192.6c2.858-.922,5.9-1.489,8.52-2.866,2.639-1.387,2.543-7.081.193-8.347-5.029-2.709-10.259-1.1-12.673,4.112C1029.158,806.949,1030.87,808.642,1035.265,808.391Zm-6.209-2.972c.174-3.036-.887-4.153-3.9-3.537a35.829,35.829,0,0,0-6.613,2.228c-2.863,1.206-3.721,3.853-3.814,6.61-.1,2.99,2.056,4.786,5.066,4.677C1024.512,815.227,1028.757,810.65,1029.056,805.419Zm14.131-18.991c.1-4.763-2.49-6.688-6.713-5.238a7.928,7.928,0,0,0-1.2.435c-3.113,1.671-5.952,3.642-7.061,7.243-.431,1.4-.273,2.664,1.328,3.358a18.617,18.617,0,0,0,2.288,1.239c1.3.347,2.875.941,3.975.513,1.644-.639,2.988-2.062,4.441-3.176C1041.781,789.625,1043.345,788.449,1043.187,786.428Zm-24.367-2.507c1.639-.245,3.619-.424,5.544-.851,4.676-1.036,6.353-3.6,5.69-8.307a2.088,2.088,0,0,0-2.422-2.085c-5.779.444-10.184,3.62-14.142,7.472-1.36,1.322-.548,3.063,1.392,3.394C1016.063,783.746,1017.271,783.78,1018.82,783.922Z" transform="translate(-1047.613 -785.953)" fill="#4a3e32"/>
        </g>
      </g>
      <path id="パス_359" data-name="パス 359" d="M1060.022,817.209c-4.4.25-6.108-1.443-3.768-6.5,2.413-5.215,7.644-6.821,12.673-4.112,2.35,1.266,2.446,6.96-.193,8.347-2.619,1.377-5.662,1.943-8.52,2.866Q1060.117,817.511,1060.022,817.209Zm-2.425-2.864.572.674a17.586,17.586,0,0,0,2.756-.888c2.147-1.093,4.255-2.27,6.327-3.5.4-.238.572-.866.849-1.314-.593-.107-1.3-.479-1.757-.277-2.266,1.009-4.5,2.1-6.667,3.312A11.294,11.294,0,0,0,1057.6,814.346Z" transform="translate(-988.342 -781.486)" fill="#4a3e32"/>
      <path id="パス_360" data-name="パス 360" d="M1047.993,816.175c-.3,5.231-4.544,9.808-9.257,9.979-3.01.109-5.166-1.687-5.066-4.677.093-2.758.951-5.4,3.814-6.61a35.831,35.831,0,0,1,6.613-2.228C1047.105,812.023,1048.167,813.139,1047.993,816.175Zm-2.193-1.231c-3.682-.156-9.3,3.729-9.555,6.667a8.315,8.315,0,0,0,2.173-.606c1.382-.857,2.617-1.954,4.011-2.789a18.738,18.738,0,0,1,3.152-1.151C1045.613,816.744,1045.7,815.923,1045.8,814.944Z" transform="translate(-982.522 -783.424)" fill="#4a3e32"/>
      <path id="パス_361" data-name="パス 361" d="M1067.04,789.409c.158,2.021-1.406,3.2-2.942,4.374-1.453,1.114-2.8,2.537-4.441,3.176-1.1.428-2.67-.166-3.975-.513a18.617,18.617,0,0,1-2.288-1.239c-1.6-.694-1.76-1.959-1.328-3.358,1.109-3.6,3.948-5.572,7.062-7.243a7.928,7.928,0,0,1,1.2-.435C1064.55,782.721,1067.137,784.645,1067.04,789.409Zm-8.42-2.481c1.616,1.662,1.535,1.578.152,2.907a7.717,7.717,0,0,0-1.609,2.664,4.952,4.952,0,0,0,.021,1.869,7.187,7.187,0,0,0,1.74-.859c1.627-1.456,3.218-2.959,4.729-4.534.429-.447.908-1.38.715-1.768a2.486,2.486,0,0,0-1.773-1.315A20.079,20.079,0,0,0,1058.62,786.927Z" transform="translate(-987.438 -775.649)" fill="#4a3e32"/>
      <path id="パス_362" data-name="パス 362" d="M1037.048,783.922c-1.549-.142-2.757-.175-3.937-.377-1.94-.331-2.752-2.072-1.392-3.394,3.958-3.851,8.363-7.027,14.142-7.472a2.088,2.088,0,0,1,2.422,2.085c.663,4.711-1.014,7.27-5.69,8.307C1040.667,783.5,1038.687,783.677,1037.048,783.922Zm-3.536-2.653.406.928c1.963-.771,3.969-1.451,5.876-2.342,1.659-.775,3.112-2.166,4.828-2.589,1.681-.414,1.394-1.116,1.162-2.46C1040.938,775.827,1037.122,778.354,1033.512,781.269Z" transform="translate(-981.813 -772.668)" fill="#4a3e32"/>
    </g>
    <g id="グループ_13" data-name="グループ 13" transform="translate(1042.198 645.348)">
      <path id="パス_363" data-name="パス 363" d="M1168.912,763.981c-1.533.075-2.279-.563-2.407-2.2q-1.352-17.217-2.823-34.426c-1.36-15.814-1.222-31.782-4.662-47.383-.958-4.34-2.141-8.632-3.336-12.914-.585-2.094-1.693-3.442-4.307-3.465-8.768-.078-17.534-.424-26.3-.655a11.658,11.658,0,0,0-1.465.152c-1.19,3.684.158,8.273-3.718,10.874a10.836,10.836,0,0,1-8,1.369c-4.523-.714-7.494-5.254-7.634-12.017-1.537.021-3.085.045-4.633.064-4.267.051-8.534.136-12.8.132-1.353,0-1.913.512-2.22,1.861-2.222,9.745-4.318,19.527-6.874,29.185a156.008,156.008,0,0,0-5.079,31.946c-.08,1.548.513,3.12.629,4.692a6.9,6.9,0,0,1-.507,2.072c-.625-.468-1.654-.835-1.8-1.423a21.53,21.53,0,0,1-.842-5.839c.467-12.865,3.166-25.339,6.662-37.682,1.946-6.871,3.647-13.815,5.322-20.76.837-3.467,1-6.983,2.462-10.449,1.014-2.395-.432-5.847-.817-8.823-.048-.373-.468-.714-.474-1.074a10.982,10.982,0,0,1,.265-1.872c.6.348,1.612.591,1.727,1.059a58.885,58.885,0,0,1,1.82,9.064c.487,5.831.336,5.847,6.009,5.707,3.715-.092,7.435-.106,11.14-.352a5.75,5.75,0,0,0,2.745-1.365c1.252-.95,2.255-2.256,3.562-3.1,2.711-1.752,4.354-1.667,6.86.429a15.871,15.871,0,0,0,11.425,3.691c8.433-.263,16.891.265,25.594.47.25-3.6.511-7.356.772-11.111l-.481-.373c-.816,1.384-1.708,2.731-2.418,4.168-.449.909-.52,2-.954,2.924a18.178,18.178,0,0,1-1.617,2.416c-.158-1.015-.672-2.139-.4-3.023.659-2.164,1.679-4.217,2.711-6.691-1.257-.089-2.325-.215-3.4-.231-12.013-.175-24.029-.25-36.04-.526-7.342-.169-14.677-.619-22.012-1.019-.52-.029-1-.693-1.506-1.063.525-.359,1.048-1.023,1.574-1.024,2.529-.01,5.057.225,7.587.253,13.038.146,26.078.169,39.113.413,6.557.123,13.109.583,19.656,1a7.83,7.83,0,0,1,2.521,1.189l-2.071,1.511c-.063.047-.125.1.14-.107-.3,4.3-.639,8.318-.823,12.346a9.809,9.809,0,0,0,.526,3.739,122.223,122.223,0,0,1,6.864,32.061c1.546,18.278,2.935,36.569,4.312,54.86.285,3.781.231,7.588.333,11.383Zm-57.43-95.8c3.423,2.036,5.138,1.57,5.22-1.09Z" transform="translate(-1070.13 -645.348)" fill="#4a3e32"/>
      <path id="パス_364" data-name="パス 364" d="M1179.787,704.235c.123,12.559.247,25.118.371,37.794,1.236-2.23,2.461-4.531,3.792-6.77.293-.494.963-.765,1.459-1.138.047.642.333,1.39.1,1.911q-2.249,5.095-4.7,10.1c-2.608,5.314-2.279,11.115-3.24,16.7l.918.234c1.012-3.526,2.024-7.051,3.149-10.972.37.833.962,1.533.921,2.193a30.939,30.939,0,0,1-.8,5.555c-.629,2.518-1.5,4.978-2.27,7.459-.164.523-.217,1.253-.585,1.514-3.977,2.82-1.565,6.8-2.336,10.185l.681.2c.632-1.544,1.2-3.116,1.911-4.624,1-2.132,2.145-4.2,3.144-6.332a8.867,8.867,0,0,0,.793-2.659c.849-7.137,1.63-14.283,2.466-21.422a22.879,22.879,0,0,1,.607-2.6l.728-.007a9.256,9.256,0,0,1,.395,2.221c-.466,6.939-1.13,13.867-1.435,20.813-.132,3.018.479,6.065.661,9.1a7.237,7.237,0,0,1-.485,2.035c-.613-.368-1.49-.594-1.783-1.136a27.96,27.96,0,0,1-1.433-4.076c-1.4,3.936-2.608,7.337-3.824,10.734a26.29,26.29,0,0,1-1.2,3.091,1.608,1.608,0,0,1-1.225.8c-.345-.038-.7-.684-.91-1.128-2.952-6.217-1.182-12.661-.74-19,.787-11.269,2.07-22.506,2.741-33.78.389-6.533-.029-13.114-.043-19.673,0-1.895.074-3.794.24-5.681a7.225,7.225,0,0,1,.756-1.921Z" transform="translate(-1098.195 -660.532)" fill="#4a3e32"/>
      <path id="パス_365" data-name="パス 365" d="M1153.635,741.786c-3.73-.717-5.266-2.342-4.145-5.719a44.708,44.708,0,0,1,4.661-8.878,2.719,2.719,0,0,1,2.593-.693,3.111,3.111,0,0,1,.977,2.534c-.207,3.024-2.375,4.814-4.5,6.639a9.439,9.439,0,0,0-1.483,2.349,10.453,10.453,0,0,0,3.011.758c.965-.045,1.878-.81,2.863-1a5.928,5.928,0,0,1,2.046.351c-.28.576-.414,1.461-.865,1.673C1157.132,740.582,1155.364,741.141,1153.635,741.786Z" transform="translate(-1091.477 -666.91)" fill="#4a3e32"/>
      <path id="パス_366" data-name="パス 366" d="M1124.35,728.5a26.6,26.6,0,0,1,3.388-.593c.4-.018.82.489,1.23.757a8.448,8.448,0,0,1-.747,1.067.935.935,0,0,1-.662.212c-3.4-.155-3.461,2.1-3.651,4.626a33.741,33.741,0,0,1-1.49,7.358c-.223.724-1.849,1.734-2.355,1.514-1.485-.646-.236-1.643-.014-2.653.715-3.244,1.06-6.57,1.5-9.873.076-.581-.225-1.215-.135-1.791a43.638,43.638,0,0,1,.992-5.033,36.543,36.543,0,0,1,2.077-5.928c.3-.619,1.514-.938,2.362-1.079.324-.053,1.05.743,1.122,1.222.063.425-.514,1.352-.828,1.361-2.045.059-2.173,1.579-2.35,2.959C1124.556,724.418,1124.509,726.227,1124.35,728.5Z" transform="translate(-1083.429 -664.404)" fill="#4a3e32"/>
      <path id="パス_367" data-name="パス 367" d="M1162.3,731.811c.345-2.878,1.248-5.551,4.109-6.72,1.1-.449,2.6.1,3.922.19-.209,1.16-.1,2.533-.7,3.43-.944,1.406-2.464,2.413-3.542,3.748a2.752,2.752,0,0,0-.5,2.278,1.466,1.466,0,0,0,2.509.563,31.356,31.356,0,0,1,2.518-2.127,5.182,5.182,0,0,1,1.874-.356,4.3,4.3,0,0,1,.051,1.716c-.933,2.18-4.648,4.113-6.646,3.566C1163.776,737.52,1161.968,734.364,1162.3,731.811Z" transform="translate(-1095.024 -666.525)" fill="#4a3e32"/>
      <path id="パス_368" data-name="パス 368" d="M1140,729.7l2.581,1.184a15.317,15.317,0,0,0-1.738,1.657,4.69,4.69,0,0,0-1.119,2.076c-.322,2.739-.344,5.516-.733,8.243a8.931,8.931,0,0,1-1.522,3.342c-.19.295-1.15.29-1.641.107-.223-.083-.3-.957-.209-1.427.681-3.508,1.421-7.005,2.186-10.716l-2.918-.2c.16-.517.177-1.079.382-1.158,2.628-1.014,2.377-3.339,2.73-5.5a16.531,16.531,0,0,1,1.612-5.111,3.24,3.24,0,0,1,2.735-1.122c.856.115,1.587,1.165,2.177,2-3.65-.11-3.924.132-4.332,3.979C1140.087,728.043,1140.047,729.045,1140,729.7Z" transform="translate(-1087.628 -665.461)" fill="#4a3e32"/>
      <path id="パス_369" data-name="パス 369" d="M1197.572,806.989l2.686.482c-.662.782-1.171,1.943-2.012,2.282-4.236,1.708-8.564,3.187-12.848,4.779-2.514.933-5,1.936-7.511,2.884-.323.122-.7.1-1.39-.307.514-.543.929-1.319,1.56-1.586,1.932-.82,2.8-2.334,3.485-4.195a42.132,42.132,0,0,1,2.345-4.626l1.073.423-1.818,5.768c2.648-.946,4.913-1.653,7.094-2.561,2.51-1.044,4.946-2.265,7.415-3.41Z" transform="translate(-1098.871 -688.289)" fill="#4a3e32"/>
      <g id="グループ_12" data-name="グループ 12" transform="translate(24.161 57.7)">
        <path id="パス_370" data-name="パス 370" d="M1103.237,731.842c.643-1.759,1.18-3.567,1.961-5.262.671-1.458,1.747-3.046,3.55-2.49a7.665,7.665,0,0,1,4.079,2.74c1.943,3.109-1.231,8.974-4.865,9.515C1104.889,736.8,1103.263,735.188,1103.237,731.842Zm2.335-.146c.239.571.455,2.015.989,2.143a3.076,3.076,0,0,0,2.583-1.014,10.317,10.317,0,0,0,1.644-3.746c.362-1.455-.709-2-1.96-2.421-1.481-.5-1.827.484-2.184,1.438C1106.259,729.122,1106.01,730.2,1105.572,731.7Z" transform="translate(-1103.237 -723.976)" fill="#4a3e32"/>
        <g id="グループ_11" data-name="グループ 11" clip-path="url(#clip-path-2)">
          <path id="パス_371" data-name="パス 371" d="M1168.908,763.325c-2.467,1.144-4.9,2.365-7.413,3.408-2.181.908-4.445,1.615-7.094,2.561l1.818-5.768-1.073-.423a42.111,42.111,0,0,0-2.345,4.626c-.686,1.861-1.553,3.375-3.485,4.195-.63.267-1.046,1.043-1.56,1.586.69.408,1.067.429,1.39.307,2.509-.948,5-1.951,7.511-2.884,4.284-1.592,8.612-3.07,12.848-4.779.841-.339,1.35-1.5,2.012-2.282l-2.687-.482c-.1-3.774-.049-7.56-.333-11.32-1.378-18.189-2.767-36.379-4.312-54.556a120.965,120.965,0,0,0-6.864-31.883,9.7,9.7,0,0,1-.526-3.718c.183-4.005.523-8,.823-12.277-.266.2-.2.153-.14.107l2.071-1.5a7.85,7.85,0,0,0-2.521-1.182c-6.547-.417-13.1-.875-19.656-1-13.036-.242-26.075-.266-39.113-.411-2.53-.028-5.058-.262-7.587-.252-.526,0-1.049.662-1.574,1.019.5.367.987,1.028,1.506,1.057,7.334.4,14.67.846,22.012,1.014,12.011.275,24.027.35,36.04.523,1.07.016,2.138.142,3.4.23-1.032,2.46-2.052,4.5-2.711,6.654-.269.879.246,2,.4,3.006a18.07,18.07,0,0,0,1.617-2.4c.434-.915.5-2,.954-2.908.709-1.429,1.6-2.768,2.418-4.144l.481.371c-.261,3.734-.522,7.469-.772,11.05-8.7-.2-17.161-.73-25.594-.468a15.929,15.929,0,0,1-11.425-3.671c-2.506-2.084-4.149-2.169-6.86-.427-1.307.84-2.31,2.139-3.562,3.083a5.763,5.763,0,0,1-2.745,1.357c-3.705.244-7.426.258-11.14.35-5.673.139-5.522.124-6.009-5.675a58.272,58.272,0,0,0-1.82-9.014c-.115-.465-1.129-.707-1.727-1.053a10.863,10.863,0,0,0-.265,1.862c.007.358.426.7.474,1.068.385,2.959,1.83,6.392.817,8.774-1.466,3.447-1.625,6.943-2.462,10.391-1.676,6.906-3.376,13.811-5.322,20.644-3.5,12.274-6.194,24.679-6.662,37.473a21.3,21.3,0,0,0,.842,5.806c.145.585,1.174.95,1.8,1.415a6.834,6.834,0,0,0,.507-2.06c-.116-1.564-.709-3.127-.629-4.666a154.35,154.35,0,0,1,5.079-31.769c2.556-9.6,4.652-19.332,6.874-29.023.307-1.341.867-1.852,2.22-1.851,4.266,0,8.533-.08,12.8-.131,1.548-.019,3.1-.042,4.633-.063.14,6.725,3.111,11.24,7.634,11.95a10.887,10.887,0,0,0,8-1.362c3.877-2.587,2.529-7.15,3.718-10.814a11.729,11.729,0,0,1,1.465-.151c8.767.23,17.533.574,26.3.652,2.613.023,3.722,1.362,4.307,3.445,1.195,4.258,2.378,8.526,3.336,12.842,3.44,15.515,3.3,31.394,4.662,47.12q1.481,17.112,2.823,34.235C1166.633,762.763,1167.378,763.4,1168.908,763.325Zm-17.186-74.934-1.169-.255a7.229,7.229,0,0,0-.756,1.921c-.166,1.886-.244,3.786-.24,5.681.014,6.559.432,13.14.043,19.673-.671,11.274-1.954,22.511-2.741,33.78-.442,6.335-2.212,12.779.74,19,.211.444.565,1.09.91,1.128a1.608,1.608,0,0,0,1.225-.8,26.29,26.29,0,0,0,1.2-3.091c1.217-3.4,2.423-6.8,3.824-10.734a27.975,27.975,0,0,0,1.433,4.076c.294.542,1.171.768,1.784,1.136a7.242,7.242,0,0,0,.485-2.035c-.182-3.04-.793-6.086-.661-9.1.3-6.945.969-13.874,1.435-20.813a9.256,9.256,0,0,0-.395-2.221l-.728.007a22.852,22.852,0,0,0-.607,2.6c-.836,7.14-1.617,14.285-2.466,21.422a8.87,8.87,0,0,1-.793,2.659c-1,2.133-2.143,4.2-3.144,6.332-.709,1.508-1.279,3.08-1.911,4.624l-.681-.2c.771-3.387-1.641-7.365,2.336-10.185.369-.261.422-.991.585-1.514.775-2.481,1.641-4.941,2.27-7.459a30.939,30.939,0,0,0,.8-5.555c.041-.66-.551-1.36-.921-2.193-1.125,3.92-2.137,7.446-3.149,10.972l-.918-.234c.96-5.587.631-11.388,3.24-16.7q2.455-5,4.7-10.1c.23-.52-.056-1.268-.1-1.911-.5.374-1.166.644-1.459,1.138-1.331,2.239-2.556,4.54-3.792,6.77C1151.969,713.51,1151.845,700.951,1151.722,688.392Zm-19.434,31.5c1.729-.644,3.5-1.2,5.161-1.987.451-.212.585-1.1.865-1.673a5.927,5.927,0,0,0-2.046-.351c-.985.191-1.9.957-2.863,1a10.451,10.451,0,0,1-3.011-.758,9.439,9.439,0,0,1,1.483-2.349c2.122-1.825,4.291-3.615,4.5-6.639a3.111,3.111,0,0,0-.977-2.534,2.72,2.72,0,0,0-2.593.693,44.715,44.715,0,0,0-4.661,8.878C1127.023,717.546,1128.559,719.171,1132.289,719.888Zm-21.238-10.769c.159-2.277.207-4.086.437-5.872.177-1.381.3-2.9,2.35-2.959.314-.009.891-.936.828-1.361-.072-.479-.8-1.276-1.122-1.222-.849.14-2.067.46-2.362,1.079a36.566,36.566,0,0,0-2.077,5.928,43.663,43.663,0,0,0-.992,5.033c-.09.576.211,1.21.135,1.791-.436,3.3-.781,6.629-1.5,9.873-.222,1.009-1.471,2.007.014,2.653.506.22,2.132-.79,2.355-1.514a33.741,33.741,0,0,0,1.49-7.358c.19-2.526.252-4.781,3.651-4.626a.934.934,0,0,0,.662-.212,8.435,8.435,0,0,0,.747-1.067c-.411-.268-.832-.775-1.23-.757A26.606,26.606,0,0,0,1111.051,709.119Zm26.354,1.192c-.331,2.553,1.477,5.708,3.6,6.289,2,.547,5.712-1.387,6.646-3.566a4.3,4.3,0,0,0-.051-1.716,5.181,5.181,0,0,0-1.874.356,31.334,31.334,0,0,0-2.518,2.127,1.466,1.466,0,0,1-2.509-.563,2.753,2.753,0,0,1,.5-2.278c1.079-1.336,2.6-2.342,3.542-3.748.6-.9.494-2.27.7-3.43-1.32-.093-2.824-.639-3.922-.19C1138.653,704.76,1137.75,707.434,1137.405,710.311Zm-14.9-1.071c.045-.651.085-1.653.191-2.648.408-3.847.682-4.089,4.332-3.979-.59-.836-1.321-1.887-2.177-2a3.24,3.24,0,0,0-2.735,1.122,16.527,16.527,0,0,0-1.612,5.111c-.353,2.159-.1,4.484-2.73,5.5-.2.079-.222.641-.382,1.158l2.918.2c-.765,3.711-1.5,7.208-2.186,10.716-.091.47-.015,1.344.209,1.427.491.182,1.451.188,1.641-.107a8.931,8.931,0,0,0,1.522-3.342c.389-2.727.412-5.5.733-8.243a4.691,4.691,0,0,1,1.119-2.076,15.392,15.392,0,0,1,1.737-1.657Zm-28.212,1.355c.026,3.346,1.652,4.962,4.724,4.5,3.634-.542,6.808-6.406,4.865-9.515a7.665,7.665,0,0,0-4.079-2.74c-1.8-.556-2.879,1.032-3.55,2.49C1095.471,707.029,1094.934,708.837,1094.291,710.6Zm37.236,64.829-.042.6c3.945.276,7.887.588,11.834.792a6.321,6.321,0,0,0,2.019-.616c-.535-.561-1.06-1.131-1.613-1.674-.095-.093-.3-.09-.457-.1-8.042-.509-16.084-1.026-24.128-1.486-.414-.023-.855.453-1.284.7.458.309.895.848,1.375.889C1123.326,774.879,1127.427,775.138,1131.527,775.425Zm-41.549-72.591c-.55-2.625-2.993-3.317-4.948-1.515-2.221,2.048-2.977,4.766-3.28,7.664a6.131,6.131,0,0,0,3.159,6.165c2.3,1.453,4.663,1.533,6.782-.323a8.956,8.956,0,0,0,1.409-2.344c-.9.1-1.994-.093-2.656.355a3.663,3.663,0,0,1-4.595.066c-2.109-1.493-2.443-4.435-.965-7.793C1086.05,702.459,1086.652,702.173,1089.978,702.834Z" transform="translate(-1094.291 -702.73)" fill="#4a3e32"/>
        </g>
      </g>
      <path id="パス_373" data-name="パス 373" d="M1149.2,822.667c-4.1-.287-8.2-.546-12.3-.9-.48-.041-.917-.58-1.375-.889.429-.243.871-.72,1.284-.7,8.045.46,16.086.977,24.128,1.486.156.01.362.007.457.1.552.543,1.078,1.113,1.613,1.674a6.322,6.322,0,0,1-2.019.616c-3.947-.2-7.89-.516-11.834-.792Z" transform="translate(-1087.801 -691.932)" fill="#4a3e32"/>
      <path id="パス_374" data-name="パス 374" d="M1094.265,723.185c-3.326-.66-3.928-.374-5.093,2.275-1.477,3.358-1.144,6.3.966,7.793a3.663,3.663,0,0,0,4.595-.066c.661-.449,1.757-.256,2.656-.355a8.956,8.956,0,0,1-1.409,2.344c-2.119,1.855-4.48,1.776-6.782.323a6.131,6.131,0,0,1-3.159-6.165c.3-2.9,1.058-5.616,3.28-7.664C1091.272,719.868,1093.716,720.56,1094.265,723.185Z" transform="translate(-1074.417 -665.386)" fill="#4a3e32"/>
    </g>
  </g>
</svg>
