<svg xmlns="http://www.w3.org/2000/svg" width="980" height="630.849" viewBox="0 0 980 630.849">
  <path id="top-main-bg" d="M-458.415,154.161s17.056-181.2,154.683-218.454c0,0,33.644-11.88,57.31-15.512s62.476-7.756,121.939,5.6l59.463,13.358S11.459-35.856,121.332-46.2c0,0,99.531-5.816,148,7.756S376.2-5.263,419.282,31.792l28.438,27.576s26.714,31.454,35.762,52.136l9.053,20.681s19.17,43.951,21.758,84.668l2.583,40.718s1.294,82.081-23.911,128.616l-25.21,46.535s-63.985,76.265-166.1,87.9L229.267,524.5S47.65,507.695,24.384,508.987s-91.15,15.116-140.249,29.731l-41,7.971S-325.275,563.062-402.829,445l-31.885-59.46S-476.94,332.974-458.415,154.161Z" transform="translate(463.114 83.388)" fill="#fff"/>
</svg>
